<?xml version="1.0" encoding="UTF-8"?>
<svg width="24px" height="24px" viewBox="0 0 24 24" version="1.1" xmlns="http://www.w3.org/2000/svg" xmlns:xlink="http://www.w3.org/1999/xlink">
    <title>ic_celiakeyboard_menu</title>
    <defs>
        <path d="M5.86537116,9.95833948 C6.09976077,10.4957789 6.40142193,10.9963471 6.75938548,11.4504646 L6.1,11.45 C5.1818266,11.45 4.42880766,12.1571103 4.3558012,13.0564728 L4.35,13.2 L4.35,19 C4.35,19.9181734 5.05711027,20.6711923 5.95647279,20.7441988 L6.1,20.75 L17.8,20.75 C18.7181734,20.75 19.4711923,20.0428897 19.5441988,19.1435272 L19.55,19 L19.55,13.2 C19.55,12.2818266 18.8428897,11.5288077 17.9435272,11.4558012 L17.8,11.45 L17.5120174,11.4504646 C17.8601302,11.008844 18.1549967,10.523294 18.3869346,10.0034971 C19.8411815,10.2682061 20.9575554,11.5011043 21.0445385,13.0100005 L21.05,13.2 L21.05,19 C21.05,20.7330315 19.6935452,22.1492459 17.9844239,22.2448552 L17.8,22.25 L6.1,22.25 C4.36696854,22.25 2.95075407,20.8935452 2.85514479,19.1844239 L2.85,19 L2.85,13.2 C2.85,11.4839724 4.17996732,10.0785753 5.86537116,9.95833948 Z M17.1566926,17.7639744 C17.5709062,17.7639744 17.9066926,18.0997608 17.9066926,18.5139744 C17.9066926,18.8936701 17.6245387,19.2074653 17.2584632,19.2571278 L17.1566926,19.2639744 L6.84524315,19.2639744 C6.43102959,19.2639744 6.09524315,18.9281879 6.09524315,18.5139744 C6.09524315,18.1342786 6.37739703,17.8204834 6.74347259,17.770821 L6.84524315,17.7639744 L17.1566926,17.7639744 Z M8.92788778,15.4152893 C9.34210134,15.4152893 9.67788778,15.7510757 9.67788778,16.1652893 C9.67788778,16.544985 9.39573389,16.8587802 9.02965833,16.9084426 L8.92788778,16.9152893 L8.33284645,16.9152893 C7.91863289,16.9152893 7.58284645,16.5795028 7.58284645,16.1652893 C7.58284645,15.7855935 7.86500034,15.4717983 8.2310759,15.4221359 L8.33284645,15.4152893 L8.92788778,15.4152893 Z M16.0683836,15.4152893 C16.4825972,15.4152893 16.8183836,15.7510757 16.8183836,16.1652893 C16.8183836,16.544985 16.5362298,16.8587802 16.1701542,16.9084426 L16.0683836,16.9152893 L15.4733423,16.9152893 C15.0591288,16.9152893 14.7233423,16.5795028 14.7233423,16.1652893 C14.7233423,15.7855935 15.0054962,15.4717983 15.3715718,15.4221359 L15.4733423,15.4152893 L16.0683836,15.4152893 Z M12.4981357,15.4152893 C12.9123493,15.4152893 13.2481357,15.7510757 13.2481357,16.1652893 C13.2481357,16.544985 12.9659818,16.8587802 12.5999063,16.9084426 L12.4981357,16.9152893 L11.9030944,16.9152893 C11.4888808,16.9152893 11.1530944,16.5795028 11.1530944,16.1652893 C11.1530944,15.7855935 11.4352483,15.4717983 11.8013238,15.4221359 L11.9030944,15.4152893 L12.4981357,15.4152893 Z M17.2584663,13.035124 C17.6726799,13.035124 18.0084663,13.3709104 18.0084663,13.785124 C18.0084663,14.1648197 17.7263124,14.4786149 17.3602368,14.5282774 L17.2584663,14.535124 L16.663425,14.535124 C16.2492114,14.535124 15.913425,14.1993375 15.913425,13.785124 C15.913425,13.4054282 16.1955788,13.091633 16.5616544,13.0419706 L16.663425,13.035124 L17.2584663,13.035124 Z M7.73780513,13.035124 C8.15201869,13.035124 8.48780513,13.3709104 8.48780513,13.785124 C8.48780513,14.1648197 8.20565125,14.4786149 7.83957569,14.5282774 L7.73780513,14.535124 L7.14276381,14.535124 C6.72855025,14.535124 6.39276381,14.1993375 6.39276381,13.785124 C6.39276381,13.4054282 6.67491769,13.091633 7.04099325,13.0419706 L7.14276381,13.035124 L7.73780513,13.035124 Z M12.1357014,1.37644879 C15.3620956,1.37644879 17.9776048,3.991958 17.9776048,7.21835212 C17.9776048,10.4447462 15.3620956,13.0602554 12.1357014,13.0602554 C8.90930733,13.0602554 6.29379812,10.4447462 6.29379812,7.21835212 C6.29379812,3.991958 8.90930733,1.37644879 12.1357014,1.37644879 Z M9.00630835,4.10630468 C8.31030876,4.75835608 7.94584951,5.61639872 8.05753863,6.26674918 C8.11250144,6.58641097 8.40741951,6.99076848 8.92136583,7.21224425 C9.39369326,7.41577203 9.41797095,7.42310372 9.82604774,7.57519235 C10.8162012,7.94412312 10.6094588,8.44367532 10.5634311,9.01361177 C10.5389183,9.31737846 10.5805372,9.53480713 10.8840964,9.83352961 C11.1876557,10.1322521 11.3920468,10.140229 11.4240252,10.8469455 C11.4463042,11.3434477 11.48034,11.5313736 11.7061872,11.5756571 C11.9807661,11.6295597 12.8094406,10.738847 13.3010491,9.64519309 C13.6606881,8.8451588 13.5939097,8.34431622 13.2484964,7.9810162 C12.9030831,7.61771617 12.3987773,7.53618775 11.7479824,7.41125571 C11.0971875,7.28632367 10.9287721,7.34122338 10.3716197,7.13271004 C9.81446734,6.92419671 9.74616062,6.67010957 9.83727543,6.39091872 C9.92839025,6.11172787 10.4171771,5.87453295 10.6913445,6.25061945 C10.9655119,6.62670595 11.0959531,6.80712424 11.2575496,6.74700436 C11.4118569,6.68969986 11.3242104,6.40904267 11.3024016,6.10768078 C11.270482,5.6674273 11.8438587,5.48812343 12.2227788,5.42946989 C12.541034,5.38025957 12.7788143,5.25421311 12.8047379,4.88469581 C12.8470034,4.28173742 13.349722,4.25164815 13.3085734,3.82042732 C13.2591951,3.30509732 12.5447374,3.08180329 11.9751228,3.04203619 C10.880088,2.96827454 9.80391896,3.35406247 9.00630835,4.10630468 Z M15.1909466,6.47139138 C15.1141751,7.07681322 15.0648555,7.36679632 14.9962549,7.85362071 C14.8969103,8.55887087 15.1480933,8.8244541 15.4302553,8.86551158 C15.7918929,8.91859304 16.108561,8.33023937 16.1442427,7.44304593 C16.1799244,6.55585248 15.7948909,5.71094823 15.5903234,5.67962724 C15.3725884,5.64637068 15.2662486,5.87705506 15.1909466,6.47139138 Z" id="path-1"></path>
    </defs>
    <g id="ic_celiakeyboard_menu" stroke="none" stroke-width="1" fill="none" fill-rule="evenodd">
        <mask id="mask-2" fill="white">
            <use xlink:href="#path-1"></use>
        </mask>
        <use id="蒙版" fill="#000000" fill-rule="nonzero" xlink:href="#path-1"></use>
        <g id="编组" mask="url(#mask-2)" fill-opacity="0.9">
            <g transform="translate(-0.000000, -0.000000)">
                <rect id="color/#000000" fill="#000000" x="0" y="0" width="24" height="24"></rect>
            </g>
        </g>
    </g>
</svg>