<?xml version="1.0" encoding="UTF-8"?>
<svg width="24px" height="24px" viewBox="0 0 24 24" version="1.1" xmlns="http://www.w3.org/2000/svg" xmlns:xlink="http://www.w3.org/1999/xlink">
    <title>ic_celiakeyboard_traditional_input</title>
    <defs>
        <path d="M7.1277704,1.25 L17.169864,1.25169648 C18.7090792,1.26994521 19.4939169,1.43785502 20.3073906,1.87290551 C21.0899438,2.29141954 21.7085805,2.91005624 22.1270945,3.69260945 C22.5893356,4.55692524 22.75,5.38891362 22.75,7.1277704 L22.75,7.1277704 L22.75,16.8722296 C22.75,18.6110864 22.5893356,19.4430748 22.1270945,20.3073906 C21.7085805,21.0899438 21.0899438,21.7085805 20.3073906,22.1270945 C19.4430748,22.5893356 18.6110864,22.75 16.8722296,22.75 L16.8722296,22.75 L7.1277704,22.75 C5.38891362,22.75 4.55692524,22.5893356 3.69260945,22.1270945 C2.91005624,21.7085805 2.29141954,21.0899438 1.87290551,20.3073906 C1.41066437,19.4430748 1.25,18.6110864 1.25,16.8722296 L1.25,16.8722296 L1.25169648,6.83013601 C1.26994521,5.29092077 1.43785502,4.50608313 1.87290551,3.69260945 C2.29141954,2.91005624 2.91005624,2.29141954 3.69260945,1.87290551 C4.55692524,1.41066437 5.38891362,1.25 7.1277704,1.25 L7.1277704,1.25 Z M17.045998,2.7505388 L16.8722296,2.75 L6.87017614,2.75121903 C6.78734857,2.75203845 6.70749484,2.75327766 6.63042492,2.75495686 L6.63042492,2.75495686 L6.19989092,2.77047329 C5.33285874,2.81623142 4.87206136,2.94316827 4.40000774,3.19562531 C3.87885724,3.47433964 3.47433964,3.87885724 3.19562531,4.40000774 C2.94316827,4.87206136 2.81623142,5.33285874 2.77047329,6.19989092 L2.77047329,6.19989092 L2.75495686,6.63042492 C2.75159847,6.78456476 2.75,6.94983984 2.75,7.1277704 L2.75,16.8722296 L2.75495686,17.3695751 L2.77047329,17.8001091 C2.81623142,18.6671413 2.94316827,19.1279386 3.19562531,19.5999923 C3.47433964,20.1211428 3.87885724,20.5256604 4.40000774,20.8043747 C4.87206136,21.0568317 5.33285874,21.1837686 6.19989092,21.2295267 L6.19989092,21.2295267 L6.63042492,21.2450431 L7.1277704,21.25 L16.8722296,21.25 L17.3695751,21.2450431 L17.8001091,21.2295267 C18.6671413,21.1837686 19.1279386,21.0568317 19.5999923,20.8043747 C20.1211428,20.5256604 20.5256604,20.1211428 20.8043747,19.5999923 C21.0568317,19.1279386 21.1837686,18.6671413 21.2295267,17.8001091 L21.2295267,17.8001091 L21.2450431,17.3695751 L21.25,16.8722296 L21.25,7.1277704 L21.2450431,6.63042492 L21.2295267,6.19989092 C21.1837686,5.33285874 21.0568317,4.87206136 20.8043747,4.40000774 C20.5256604,3.87885724 20.1211428,3.47433964 19.5999923,3.19562531 C19.1279386,2.94316827 18.6671413,2.81623142 17.8001091,2.77047329 L17.8001091,2.77047329 L17.3695751,2.75495686 C17.2154352,2.75159847 17.0501602,2.75 16.8722296,2.75 Z M10.656,11.9344 L11.2272,12.416 L11.0158,12.5462 C10.7946,12.6778 10.544,12.8136 10.264,12.9536 L10.264,12.9536 L12.5152,12.8416 L13.0241778,12.5864889 C13.3643259,12.4106074 13.7061333,12.2231111 14.0496,12.024 L14.0496,12.024 L14.632,12.6848 L14.4326857,12.7890286 C14.0194286,13.0011429 13.5184,13.2352 12.9296,13.4912 C12.2426667,13.7898667 11.5632,14.0698667 10.8912,14.3312 L10.8912,14.3312 L14.5088,14.152 L13.7808,13.648 L14.4192,13.1328 L14.5498667,13.2194444 C15.0495111,13.5536815 15.7750222,14.0698667 16.7264,14.768 L16.7264,14.768 L16.2,15.384 L15.5056,14.8576 L15.1770667,14.8649889 C13.9998222,14.8917963 13.1237333,14.9154667 12.5488,14.936 L12.5488,14.936 L12.5488,15.944 L12.544425,16.108325 C12.5240083,16.4766417 12.4321333,16.7392 12.2688,16.896 C12.0821333,17.0752 11.7610667,17.1648 11.3056,17.1648 C10.9621333,17.1648 10.6037333,17.1424 10.2304,17.0976 L10.2304,17.0976 L10.0624,16.2352 L10.287296,16.271488 C10.5764053,16.314496 10.8225067,16.336 11.0256,16.336 C11.2272,16.336 11.3672,16.28 11.4456,16.168 C11.524,16.056 11.5632,15.8805333 11.5632,15.6416 L11.5632,15.6416 L11.5632,14.9696 L11.1173778,14.9892 C10.3593037,15.0234222 9.52604444,15.0654222 8.6176,15.1152 L8.6176,15.1152 L7.6656,15.1824 L7.5088,14.4096 L7.7248,14.4020571 C8.1408,14.3846857 8.4608,14.3536 8.6848,14.3088 C9.38666667,14.1370667 10.1781333,13.8682667 11.0592,13.5024 C10.5141333,13.5248 9.80853333,13.5696 8.9424,13.6368 L8.9424,13.6368 L8.2256,13.704 L8.08,13.032 L8.26635556,13.0120889 C8.56398519,12.9768296 8.7968,12.9312 8.9648,12.8752 C9.21866667,12.7706667 9.47626667,12.6456 9.7376,12.5 C9.99893333,12.3544 10.3050667,12.1658667 10.656,11.9344 L10.656,11.9344 Z M9.8608,15.0592 L10.2752,15.8544 L9.99630617,15.9852049 C9.23230947,16.3377053 8.30607407,16.7197037 7.2176,17.1312 L7.2176,17.1312 L6.848,16.3136 L7.39555556,16.1263111 C7.76225185,15.9960593 8.13226667,15.8550222 8.5056,15.7032 C9.0656,15.4754667 9.51733333,15.2608 9.8608,15.0592 L9.8608,15.0592 Z M13.8592,15.0032 L17.1296,16.2912 L16.7824,17.1088 C15.5802667,16.5936 14.4864,16.1642667 13.5008,15.8208 L13.5008,15.8208 L13.8592,15.0032 Z M13.6464,6.872 L14.52,7.0512 L14.4406667,7.22946667 C14.3131111,7.51257778 14.2088889,7.72568889 14.128,7.8688 L14.128,7.8688 L16.9616,7.8688 L16.9616,8.664 L16.3568,8.664 L16.2518,8.9692 C16.1426,9.266 16.0208,9.5376 15.8864,9.784 C15.7072,10.1125333 15.4832,10.4149333 15.2144,10.6912 C15.7296,11.0421333 16.3754667,11.3594667 17.152,11.6432 L17.152,11.6432 L16.7712,12.4608 C15.8602667,12.0949333 15.1248,11.6917333 14.5648,11.2512 C14.0869333,11.6021333 13.5082667,11.9306667 12.8288,12.2368 L12.8288,12.2368 L12.336,11.4976 L12.6150857,11.3732571 C13.1554286,11.1254857 13.5888,10.8832 13.9152,10.6464 C13.5568,10.2656 13.2768,9.84 13.0752,9.3696 C12.9706667,9.4816 12.8064,9.64213333 12.5824,9.8512 L12.5824,9.8512 L12.1904,9.056 L12.40915,8.830775 C12.9073167,8.289325 13.3197333,7.6364 13.6464,6.872 L13.6464,6.872 Z M8.4608,6.8384 L9.2784,7.0848 L9.0208,7.5328 L12.5376,7.5328 L12.5376,8.216 L8.5504,8.216 L8.1472,8.7088 L12.0112,8.7088 L11.9986286,8.93965714 C11.9739429,9.38308571 11.952,9.7168 11.9328,9.9408 L11.9328,9.9408 L12.8848,9.9408 L12.8848,10.568 L11.888,10.568 L11.832,11.2512 L12.2688,11.2512 L12.2688,11.856 L11.776,11.856 L11.7536,12.0912 L10.9472,12.0912 L10.9596444,11.9953778 C10.9662815,11.9373037 10.9696,11.8908444 10.9696,11.856 L10.9696,11.856 L7.4416,11.856 L7.6432,10.568 L6.9264,10.568 L6.9264,9.9408 L7.7328,9.9408 L7.8784,9.0112 L7.5648,9.3248 L6.9264,8.7872 L7.14795,8.5779 C7.36705,8.3609 7.5788,8.1208 7.7832,7.8576 C8.05573333,7.50666667 8.2816,7.16693333 8.4608,6.8384 L8.4608,6.8384 Z M9.3456,10.5008 L8.472,10.5008 L8.36,11.2512 L9.984,11.2512 L9.1776,10.7584 L9.3456,10.5008 Z M11.104,10.5008 L9.7264,10.5008 L9.8657,10.581475 C10.1760333,10.7619583 10.3834667,10.8881333 10.488,10.96 L10.488,10.96 L10.2752,11.2512 L11.0368,11.2512 L11.104,10.5008 Z M15.4048,8.664 L13.6352,8.664 L13.7332571,8.90491429 C13.9398857,9.37577143 14.2096,9.7808 14.5424,10.12 C14.9157333,9.72426667 15.2032,9.23893333 15.4048,8.664 L15.4048,8.664 Z M9.424,9.3024 L8.6624,9.3024 L8.5504,9.9968 L10.0624,9.9968 L9.2896,9.504 L9.424,9.3024 Z M11.1936,9.3024 L9.9392,9.3024 L10.021184,9.35168 C10.1203413,9.41141333 10.17888,9.44725333 10.1968,9.4592 L10.3349333,9.55128889 C10.4245333,9.60936296 10.5091556,9.6608 10.5888,9.7056 L10.5888,9.7056 L10.3872,9.9968 L11.1488,9.9968 L11.1936,9.3024 Z" id="path-1"></path>
    </defs>
    <g id="ic_celiakeyboard_traditional_input" stroke="none" stroke-width="1" fill="none" fill-rule="evenodd">
        <mask id="mask-2" fill="white">
            <use xlink:href="#path-1"></use>
        </mask>
        <g id="蒙版" fill-rule="nonzero"></g>
        <g id="编组" mask="url(#mask-2)" fill="#000000" fill-opacity="0.9">
            <g id="color/#000000">
                <rect x="0" y="0" width="24" height="24"></rect>
            </g>
        </g>
    </g>
</svg>