<?xml version="1.0" encoding="UTF-8"?>
<svg width="24px" height="24px" viewBox="0 0 24 24" version="1.1" xmlns="http://www.w3.org/2000/svg" xmlns:xlink="http://www.w3.org/1999/xlink">
    <title>ic_celiakeyboard_spell</title>
    <defs>
        <path d="M21.3,11.25 C22.6807119,11.25 23.8,12.3692881 23.8,13.75 L23.8,19.55 C23.8,20.9307119 22.6807119,22.05 21.3,22.05 L15.5,22.05 C14.1192881,22.05 13,20.9307119 13,19.55 L13,13.75 C13,12.3692881 14.1192881,11.25 15.5,11.25 L21.3,11.25 Z M20.8496,13.1016 C20.5861333,13.5930667 20.3024,14.0668 19.9984,14.5228 L19.0408,14.5228 L19.4512,14.2568 C19.1776,13.8768 18.904,13.4993333 18.6304,13.1244 L18.0756,13.4664 C18.3238667,13.816 18.5696,14.1681333 18.8128,14.5228 L17.7716,14.5228 L17.7716,15.1764 L18.3948,15.1764 L18.3948,16.7496 L17.6728,16.7496 L17.6348,16.438 L17.574,16.1036 L16.8292,16.3468 L16.8292,15.222 L17.6348,15.222 L17.6348,14.5684 L16.8292,14.5684 L16.8292,13.2536 L16.1604,13.2536 L16.1604,14.5684 L15.2256,14.5684 L15.2256,15.222 L16.1604,15.222 L16.1604,16.552 C15.7854667,16.6634667 15.4130667,16.7673333 15.0432,16.8636 L15.2104,17.5704 C15.5245333,17.4589333 15.8412,17.35 16.1604,17.2436 L16.1604,18.8396 C16.1604,18.9105333 16.1528,18.9789333 16.1376,19.0448 C16.1274667,19.0904 16.1046667,19.1309333 16.0692,19.1664 C16.0388,19.1917333 16.0058667,19.2094667 15.9704,19.2196 C15.8994667,19.2398667 15.8285333,19.2474667 15.7576,19.2424 L15.2256,19.2424 L15.3624,19.9112 L15.9476,19.9112 C16.0844,19.9061333 16.2186667,19.8884 16.3504,19.858 C16.4568,19.8276 16.5505333,19.7769333 16.6316,19.706 C16.7076,19.63 16.7608,19.5388 16.7912,19.4324 C16.8114667,19.3361333 16.8241333,19.2373333 16.8292,19.136 L16.8292,17.0308 C17.0521333,16.9598667 17.2801333,16.8889333 17.5132,16.818 L17.5132,17.426 L18.3644,17.426 C18.3441333,17.6692 18.3036,17.9098667 18.2428,18.148 C18.1972,18.3 18.1389333,18.4469333 18.068,18.5888 C17.9616,18.7864 17.8349333,18.9688 17.688,19.136 C17.5005333,19.3386667 17.3029333,19.5337333 17.0952,19.7212 L17.688,20.1544 C17.9008,19.9466667 18.1034667,19.7288 18.296,19.5008 C18.4530667,19.3032 18.5873333,19.0904 18.6988,18.8624 C18.7798667,18.6850667 18.8432,18.5026667 18.8888,18.3152 C18.9597333,18.0264 19.0078667,17.73 19.0332,17.426 L20.3632,17.426 L20.3632,20.0024 L21.0548,20.0024 L21.0548,17.426 L22.0352,17.426 L22.0352,16.7496 L21.0548,16.7496 L21.0548,15.1764 L21.8984,15.1764 L21.8984,14.5228 L20.7888,14.5228 C21.0269333,14.1630667 21.2625333,13.7982667 21.4956,13.4284 L20.8496,13.1016 Z M17.2734524,2.50035059 C18.5262343,2.50786284 19.1604332,2.63715105 19.8189677,2.98933916 C20.4385579,3.32069965 20.9293004,3.81144206 21.2606608,4.4310323 C21.5755983,5.01991411 21.7122941,5.58933597 21.7430591,6.59903004 L21.7485853,6.86089194 L21.75,7.0958278 L21.7508563,10.2787701 C21.6032521,10.2597877 21.4527691,10.25 21.3,10.25 L20.25,10.25 L20.25,7.0958278 C20.25,5.98982639 20.16903,5.57052939 19.937941,5.13843059 C19.7463803,4.78024305 19.4697569,4.50361974 19.1115694,4.31205895 C18.6794706,4.08096999 18.2601736,4 17.1541722,4 L5.7471545,4.00022498 C4.7144027,4.00504512 4.30743549,4.08797268 3.88843059,4.31205895 C3.53024305,4.50361974 3.25361974,4.78024305 3.06205895,5.13843059 C2.84747634,5.53966519 2.76233305,5.92986151 2.75126454,6.86908336 L2.75,7.0958278 L2.75022498,15.5028455 C2.75504512,16.5355973 2.83797268,16.9425645 3.06205895,17.3615694 C3.25361974,17.7197569 3.53024305,17.9963803 3.88843059,18.187941 C4.28966519,18.4025237 4.67986151,18.4876669 5.61908336,18.4987355 L5.8458278,18.5 L12,18.5 L12,19.55 C12,19.7027691 12.0097877,19.8532521 12.0287701,20.0008563 L5.8458278,20 C4.51337933,20 3.860146,19.8738548 3.1810323,19.5106608 C2.56144206,19.1793004 2.07069965,18.6885579 1.73933916,18.0689677 C1.42440172,17.4800859 1.28770588,16.910664 1.25694091,15.90097 L1.25141472,15.6391081 L1.25,15.4041722 L1.25035059,6.97654762 C1.25786284,5.72376567 1.38715105,5.0895668 1.73933916,4.4310323 C2.07069965,3.81144206 2.56144206,3.32069965 3.1810323,2.98933916 C3.81487176,2.65035811 4.42616653,2.51787291 5.58818539,2.5017148 L5.8458278,2.5 L17.2734524,2.50035059 Z M20.3632,15.1764 L20.3632,16.7496 L19.0636,16.7496 C19.0686667,16.6229333 19.0712,16.4937333 19.0712,16.362 L19.0712,15.1764 L20.3632,15.1764 Z M12.0087509,13.5005685 C12.0029497,13.582958 12,13.6661345 12,13.75 L12,15 L6.5,15 C6.08578644,15 5.75,14.6642136 5.75,14.25 C5.75,13.8357864 6.08578644,13.5 6.5,13.5 L12.0087509,13.5005685 Z M8.5,10.75 C8.91421356,10.75 9.25,11.0857864 9.25,11.5 C9.25,11.9142136 8.91421356,12.25 8.5,12.25 L8,12.25 C7.58578644,12.25 7.25,11.9142136 7.25,11.5 C7.25,11.0857864 7.58578644,10.75 8,10.75 L8.5,10.75 Z M11.75,10.75 C12.1642136,10.75 12.5,11.0857864 12.5,11.5 C12.5,11.9142136 12.1642136,12.25 11.75,12.25 L11.25,12.25 C10.8357864,12.25 10.5,11.9142136 10.5,11.5 C10.5,11.0857864 10.8357864,10.75 11.25,10.75 L11.75,10.75 Z M7,8 C7.41421356,8 7.75,8.33578644 7.75,8.75 C7.75,9.16421356 7.41421356,9.5 7,9.5 L6.5,9.5 C6.08578644,9.5 5.75,9.16421356 5.75,8.75 C5.75,8.33578644 6.08578644,8 6.5,8 L7,8 Z M13.5,8 C13.9142136,8 14.25,8.33578644 14.25,8.75 C14.25,9.16421356 13.9142136,9.5 13.5,9.5 L13,9.5 C12.5857864,9.5 12.25,9.16421356 12.25,8.75 C12.25,8.33578644 12.5857864,8 13,8 L13.5,8 Z M16.75,8 C17.1642136,8 17.5,8.33578644 17.5,8.75 C17.5,9.16421356 17.1642136,9.5 16.75,9.5 L16.25,9.5 C15.8357864,9.5 15.5,9.16421356 15.5,8.75 C15.5,8.33578644 15.8357864,8 16.25,8 L16.75,8 Z M10.25,8 C10.6642136,8 11,8.33578644 11,8.75 C11,9.16421356 10.6642136,9.5 10.25,9.5 L9.75,9.5 C9.33578644,9.5 9,9.16421356 9,8.75 C9,8.33578644 9.33578644,8 9.75,8 L10.25,8 Z" id="path-1"></path>
    </defs>
    <g id="ic_celiakeyboard_spell" stroke="none" stroke-width="1" fill="none" fill-rule="evenodd">
        <mask id="mask-2" fill="white">
            <use xlink:href="#path-1"></use>
        </mask>
        <g id="蒙版" fill-rule="nonzero"></g>
        <g id="编组" mask="url(#mask-2)" fill-opacity="0.9">
            <g transform="translate(-0.000000, 0.000000)">
                <rect id="color/#000000" fill="#000000" x="0" y="0" width="24" height="24"></rect>
            </g>
        </g>
    </g>
</svg>