<?xml version="1.0" encoding="UTF-8"?>
<svg width="24px" height="24px" viewBox="0 0 24 24" version="1.1" xmlns="http://www.w3.org/2000/svg" xmlns:xlink="http://www.w3.org/1999/xlink">
    <title>ic_celiakeyboard_float</title>
    <defs>
        <path d="M7.1277704,1.25 L17.169864,1.25169648 C18.7090792,1.26994521 19.4939169,1.43785502 20.3073906,1.87290551 C21.0899438,2.29141954 21.7085805,2.91005624 22.1270945,3.69260945 C22.5893356,4.55692524 22.75,5.38891362 22.75,7.1277704 L22.75,7.1277704 L22.75,16.8722296 C22.75,18.6110864 22.5893356,19.4430748 22.1270945,20.3073906 C21.7085805,21.0899438 21.0899438,21.7085805 20.3073906,22.1270945 C19.4430748,22.5893356 18.6110864,22.75 16.8722296,22.75 L16.8722296,22.75 L7.1277704,22.75 C5.38891362,22.75 4.55692524,22.5893356 3.69260945,22.1270945 C2.91005624,21.7085805 2.29141954,21.0899438 1.87290551,20.3073906 C1.41066437,19.4430748 1.25,18.6110864 1.25,16.8722296 L1.25,16.8722296 L1.25169648,6.83013601 C1.26994521,5.29092077 1.43785502,4.50608313 1.87290551,3.69260945 C2.29141954,2.91005624 2.91005624,2.29141954 3.69260945,1.87290551 C4.55692524,1.41066437 5.38891362,1.25 7.1277704,1.25 L7.1277704,1.25 Z M17.045998,2.7505388 L7.1277704,2.75 L6.63042492,2.75495686 L6.19989092,2.77047329 C5.33285874,2.81623142 4.87206136,2.94316827 4.40000774,3.19562531 C3.87885724,3.47433964 3.47433964,3.87885724 3.19562531,4.40000774 C2.94316827,4.87206136 2.81623142,5.33285874 2.77047329,6.19989092 L2.77047329,6.19989092 L2.75495686,6.63042492 C2.75159847,6.78456476 2.75,6.94983984 2.75,7.1277704 L2.75,16.8722296 L2.75495686,17.3695751 L2.77047329,17.8001091 C2.81623142,18.6671413 2.94316827,19.1279386 3.19562531,19.5999923 C3.47433964,20.1211428 3.87885724,20.5256604 4.40000774,20.8043747 C4.87206136,21.0568317 5.33285874,21.1837686 6.19989092,21.2295267 L6.19989092,21.2295267 L6.63042492,21.2450431 L7.1277704,21.25 L16.8722296,21.25 L17.3695751,21.2450431 L17.8001091,21.2295267 C18.6671413,21.1837686 19.1279386,21.0568317 19.5999923,20.8043747 C20.1211428,20.5256604 20.5256604,20.1211428 20.8043747,19.5999923 C21.0568317,19.1279386 21.1837686,18.6671413 21.2295267,17.8001091 L21.2295267,17.8001091 L21.2450431,17.3695751 L21.25,16.8722296 L21.25,7.1277704 L21.2450431,6.63042492 L21.2295267,6.19989092 C21.1837686,5.33285874 21.0568317,4.87206136 20.8043747,4.40000774 C20.5256604,3.87885724 20.1211428,3.47433964 19.5999923,3.19562531 C19.1279386,2.94316827 18.6671413,2.81623142 17.8001091,2.77047329 L17.8001091,2.77047329 L17.3695751,2.75495686 C17.2154352,2.75159847 17.0501602,2.75 16.8722296,2.75 Z M17.5964912,7.25 C18.7858413,7.25 19.75,8.21415872 19.75,9.40350877 L19.75,9.40350877 L19.75,16.3464912 C19.75,17.5358413 18.7858413,18.5 17.5964912,18.5 L17.5964912,18.5 L6.40350877,18.5 C5.21415872,18.5 4.25,17.5358413 4.25,16.3464912 L4.25,16.3464912 L4.25,9.40350877 C4.25,8.21415872 5.21415872,7.25 6.40350877,7.25 L6.40350877,7.25 Z M17.5964912,8.75 L6.40350877,8.75 C6.04258584,8.75 5.75,9.04258584 5.75,9.40350877 L5.75,9.40350877 L5.75,16.3464912 C5.75,16.7074142 6.04258584,17 6.40350877,17 L6.40350877,17 L17.5964912,17 C17.9574142,17 18.25,16.7074142 18.25,16.3464912 L18.25,16.3464912 L18.25,9.40350877 C18.25,9.04258584 17.9574142,8.75 17.5964912,8.75 L17.5964912,8.75 Z M15.9692982,14.5855263 C16.3144762,14.5855263 16.5942982,14.8653483 16.5942982,15.2105263 C16.5942982,15.5243245 16.3630404,15.7841095 16.0616562,15.8287497 L15.9692982,15.8355263 L8.25,15.8355263 C7.90482203,15.8355263 7.625,15.5557043 7.625,15.2105263 C7.625,14.8967282 7.85625788,14.6369432 8.15764208,14.5923029 L8.25,14.5855263 L15.9692982,14.5855263 Z M8.60087719,12.4802632 C8.94605516,12.4802632 9.22587719,12.7600852 9.22587719,13.1052632 C9.22587719,13.4190613 8.99461932,13.6788463 8.69323511,13.7234866 L8.60087719,13.7302632 L8.25,13.7302632 C7.90482203,13.7302632 7.625,13.4504411 7.625,13.1052632 C7.625,12.791465 7.85625788,12.53168 8.15764208,12.4870398 L8.25,12.4802632 L8.60087719,12.4802632 Z M11.0570175,12.4802632 C11.4021955,12.4802632 11.6820175,12.7600852 11.6820175,13.1052632 C11.6820175,13.4190613 11.4507597,13.6788463 11.1493755,13.7234866 L11.0570175,13.7302632 L10.7061404,13.7302632 C10.3609624,13.7302632 10.0811404,13.4504411 10.0811404,13.1052632 C10.0811404,12.791465 10.3123982,12.53168 10.6137824,12.4870398 L10.7061404,12.4802632 L11.0570175,12.4802632 Z M13.5131579,12.4802632 C13.8583359,12.4802632 14.1381579,12.7600852 14.1381579,13.1052632 C14.1381579,13.4190613 13.9069,13.6788463 13.6055158,13.7234866 L13.5131579,13.7302632 L13.1622807,13.7302632 C12.8171027,13.7302632 12.5372807,13.4504411 12.5372807,13.1052632 C12.5372807,12.791465 12.7685386,12.53168 13.0699228,12.4870398 L13.1622807,12.4802632 L13.5131579,12.4802632 Z M15.9692982,12.4802632 C16.3144762,12.4802632 16.5942982,12.7600852 16.5942982,13.1052632 C16.5942982,13.4190613 16.3630404,13.6788463 16.0616562,13.7234866 L15.9692982,13.7302632 L15.6184211,13.7302632 C15.2732431,13.7302632 14.9934211,13.4504411 14.9934211,13.1052632 C14.9934211,12.791465 15.2246789,12.53168 15.5260631,12.4870398 L15.6184211,12.4802632 L15.9692982,12.4802632 Z M8.60087719,10.5504386 C8.94605516,10.5504386 9.22587719,10.8302606 9.22587719,11.1754386 C9.22587719,11.4892367 8.99461932,11.7490217 8.69323511,11.793662 L8.60087719,11.8004386 L8.25,11.8004386 C7.90482203,11.8004386 7.625,11.5206166 7.625,11.1754386 C7.625,10.8616404 7.85625788,10.6018555 8.15764208,10.5572152 L8.25,10.5504386 L8.60087719,10.5504386 Z M11.0570175,10.5504386 C11.4021955,10.5504386 11.6820175,10.8302606 11.6820175,11.1754386 C11.6820175,11.4892367 11.4507597,11.7490217 11.1493755,11.793662 L11.0570175,11.8004386 L10.7061404,11.8004386 C10.3609624,11.8004386 10.0811404,11.5206166 10.0811404,11.1754386 C10.0811404,10.8616404 10.3123982,10.6018555 10.6137824,10.5572152 L10.7061404,10.5504386 L11.0570175,10.5504386 Z M13.5131579,10.5504386 C13.8583359,10.5504386 14.1381579,10.8302606 14.1381579,11.1754386 C14.1381579,11.4892367 13.9069,11.7490217 13.6055158,11.793662 L13.5131579,11.8004386 L13.1622807,11.8004386 C12.8171027,11.8004386 12.5372807,11.5206166 12.5372807,11.1754386 C12.5372807,10.8616404 12.7685386,10.6018555 13.0699228,10.5572152 L13.1622807,10.5504386 L13.5131579,10.5504386 Z M15.9692982,10.5504386 C16.3144762,10.5504386 16.5942982,10.8302606 16.5942982,11.1754386 C16.5942982,11.4892367 16.3630404,11.7490217 16.0616562,11.793662 L15.9692982,11.8004386 L15.6184211,11.8004386 C15.2732431,11.8004386 14.9934211,11.5206166 14.9934211,11.1754386 C14.9934211,10.8616404 15.2246789,10.6018555 15.5260631,10.5572152 L15.6184211,10.5504386 L15.9692982,10.5504386 Z" id="path-1"></path>
    </defs>
    <g id="ic_celiakeyboard_float" stroke="none" stroke-width="1" fill="none" fill-rule="evenodd">
        <mask id="mask-2" fill="white">
            <use xlink:href="#path-1"></use>
        </mask>
        <g id="蒙版" fill-rule="nonzero"></g>
        <g id="编组" mask="url(#mask-2)" fill="#000000" fill-opacity="0.9">
            <g id="color/#000000">
                <rect x="0" y="0" width="24" height="24"></rect>
            </g>
        </g>
    </g>
</svg>