<?xml version="1.0" encoding="UTF-8"?>
<svg width="24px" height="24px" viewBox="0 0 24 24" version="1.1" xmlns="http://www.w3.org/2000/svg" xmlns:xlink="http://www.w3.org/1999/xlink">
    <title>ic_celiakeyboard_bihua</title>
    <g id="ic_celiakeyboard_bihua" stroke="none" stroke-width="1" fill="none" fill-rule="evenodd">
        <path d="M21.3,11.25 C22.6807119,11.25 23.8,12.3692881 23.8,13.75 L23.8,19.55 C23.8,20.9307119 22.6807119,22.05 21.3,22.05 L15.5,22.05 C14.1192881,22.05 13,20.9307119 13,19.55 L13,13.75 C13,12.3692881 14.1192881,11.25 15.5,11.25 L21.3,11.25 Z M17.2734524,2.50035059 C18.5262343,2.50786284 19.1604332,2.63715105 19.8189677,2.98933916 C20.4385579,3.32069965 20.9293004,3.81144206 21.2606608,4.4310323 C21.5755983,5.01991411 21.7122941,5.58933597 21.7430591,6.59903004 L21.7485853,6.86089194 L21.75,7.0958278 L21.7508563,10.2787701 C21.6032521,10.2597877 21.4527691,10.25 21.3,10.25 L20.25,10.25 L20.25,7.0958278 C20.25,5.98982639 20.16903,5.57052939 19.937941,5.13843059 C19.7463803,4.78024305 19.4697569,4.50361974 19.1115694,4.31205895 C18.6794706,4.08096999 18.2601736,4 17.1541722,4 L5.7471545,4.00022498 C4.7144027,4.00504512 4.30743549,4.08797268 3.88843059,4.31205895 C3.53024305,4.50361974 3.25361974,4.78024305 3.06205895,5.13843059 C2.84747634,5.53966519 2.76233305,5.92986151 2.75126454,6.86908336 L2.75,7.0958278 L2.75022498,15.5028455 C2.75504512,16.5355973 2.83797268,16.9425645 3.06205895,17.3615694 C3.25361974,17.7197569 3.53024305,17.9963803 3.88843059,18.187941 C4.28966519,18.4025237 4.67986151,18.4876669 5.61908336,18.4987355 L5.8458278,18.5 L12,18.5 L12,19.55 C12,19.7027691 12.0097877,19.8532521 12.0287701,20.0008563 L5.8458278,20 C4.51337933,20 3.860146,19.8738548 3.1810323,19.5106608 C2.56144206,19.1793004 2.07069965,18.6885579 1.73933916,18.0689677 C1.42440172,17.4800859 1.28770588,16.910664 1.25694091,15.90097 L1.25141472,15.6391081 L1.25,15.4041722 L1.25035059,6.97654762 C1.25786284,5.72376567 1.38715105,5.0895668 1.73933916,4.4310323 C2.07069965,3.81144206 2.56144206,3.32069965 3.1810323,2.98933916 C3.81487176,2.65035811 4.42616653,2.51787291 5.58818539,2.5017148 L5.8458278,2.5 L17.2734524,2.50035059 Z M19.0904,13.1168 C18.8168,13.8514667 18.4444,14.5278667 17.9732,15.146 L18.6116,15.4652 C17.4969333,15.5766667 16.3848,15.6552 15.2752,15.7008 L15.3436,16.2632 C16.0681333,16.2328 16.7952,16.1872 17.5248,16.1264 L17.5248,16.7116 L15.3436,16.8104 L15.374,17.3956 L17.5248,17.2968 L17.5248,17.8896 L14.8876,18.0112 L14.9028,18.6116 L17.5248,18.4824 L17.5248,18.9612 C17.5197333,19.0929333 17.5298667,19.2170667 17.5552,19.3336 C17.5856,19.4602667 17.6438667,19.5717333 17.73,19.668 C17.8212,19.7541333 17.9276,19.8124 18.0492,19.8428 C18.2062667,19.8782667 18.3658667,19.896 18.528,19.896 L20.2684,19.896 C20.4406667,19.896 20.6129333,19.8808 20.7852,19.8504 C20.9068,19.8250667 21.0182667,19.7769333 21.1196,19.706 C21.1804,19.6502667 21.2310667,19.5844 21.2716,19.5084 C21.3273333,19.3817333 21.3602667,19.25 21.3704,19.1132 C21.3856,18.9409333 21.3982667,18.7661333 21.4084,18.5888 L20.7016,18.4216 C20.6965333,18.5634667 20.694,18.7028 20.694,18.8396 C20.6889333,18.9206667 20.6762667,18.9992 20.656,19.0752 C20.6357333,19.1309333 20.6028,19.1765333 20.5572,19.212 C20.5116,19.2322667 20.4634667,19.2449333 20.4128,19.25 C20.3064,19.2652 20.2025333,19.2728 20.1012,19.2728 L18.7484,19.2728 C18.6572,19.2728 18.5685333,19.2652 18.4824,19.25 C18.4216,19.2449333 18.3684,19.2196 18.3228,19.174 C18.2974667,19.1436 18.2797333,19.1081333 18.2696,19.0676 C18.2493333,18.9865333 18.2417333,18.9029333 18.2468,18.8168 L18.2468,18.452 L21.7048,18.2772 L21.6972,17.6844 L18.2468,17.8516 L18.2468,17.2664 L20.9828,17.1372 L20.96,16.5444 L18.2468,16.6736 L18.2468,16.0732 C19.2196,15.9972 20.1898667,15.8882667 21.1576,15.7464 L21.0284,15.1916 C20.2278667,15.3030667 19.4298667,15.3942667 18.6344,15.4652 C18.8624,15.1358667 19.0676,14.7862667 19.25,14.4164 L19.7744,14.4164 L19.5996,14.5532 C19.8174667,14.7862667 20.0252,15.0269333 20.2228,15.2752 L20.7168,14.918 L20.2836,14.4164 L21.682,14.4164 L21.682,13.8312 L19.5236,13.8312 C19.5996,13.6589333 19.6730667,13.4841333 19.744,13.3068 L19.0904,13.1168 Z M16.1872,13.1168 C15.8426667,13.8869333 15.3841333,14.5785333 14.8116,15.1916 L15.3892,15.6172 C15.7236,15.2473333 16.0225333,14.8470667 16.286,14.4164 L16.742,14.4164 L16.4608,14.6292 C16.6989333,14.8977333 16.9244,15.1738667 17.1372,15.4576 L17.6388,15.0548 L17.0992,14.4164 L18.414,14.4164 L18.414,13.8312 L16.628,13.8312 C16.7242667,13.6538667 16.8129333,13.4689333 16.894,13.2764 L16.1872,13.1168 Z M10.8871158,7.25 L12.3741135,8.0235369 C12.53487,8.11853265 12.6152482,8.206743 12.6152482,8.28816794 C12.6152482,8.36959288 12.5181245,8.45441052 12.3238771,8.54262087 C12.1296296,8.63083121 11.8248621,9.0413486 11.4095745,9.77417303 C11.0187155,10.4638901 10.2837227,11.6344558 9.20459602,13.2858699 L8.99822695,13.601145 L12.0642926,13.0788019 C12.0221014,13.2960314 12,13.5204346 12,13.75 L12.0001368,13.9438405 C11.3431833,14.1355506 10.8348635,14.2927352 10.4751773,14.4153944 C9.79866036,14.6460984 9.27620173,14.8428753 8.90780142,15.0057252 C8.5394011,15.1685751 8.3250591,15.25 8.26477541,15.25 C8.21956265,15.25 8.17246602,15.2232824 8.12348552,15.1698473 L8.07387707,15.1075064 L7.25,13.9675573 C8.22793538,13.6689992 9.44030733,11.4298134 10.8871158,7.25 Z" id="形状结合" fill="#000000" fill-rule="nonzero"></path>
    </g>
</svg>