<?xml version="1.0" encoding="UTF-8"?>
<svg width="24px" height="24px" viewBox="0 0 24 24" version="1.1" xmlns="http://www.w3.org/2000/svg" xmlns:xlink="http://www.w3.org/1999/xlink">
    <title>ic_celiakeyboard_handwritten</title>
    <defs>
        <path d="M21.3,11.25 C22.6807119,11.25 23.8,12.3692881 23.8,13.75 L23.8,19.55 C23.8,20.9307119 22.6807119,22.05 21.3,22.05 L15.5,22.05 C14.1192881,22.05 13,20.9307119 13,19.55 L13,13.75 C13,12.3692881 14.1192881,11.25 15.5,11.25 L21.3,11.25 Z M15.5306705,13.3246719 L15.4841295,13.3518819 C14.9664318,13.6707323 14.7822327,14.3408283 15.078742,14.8757452 L16.1378081,16.7869239 L15.8519205,17.3049544 L15.8394225,17.3293697 C15.595646,17.8448226 15.6944086,18.4545188 16.0892502,18.8628636 L16.1080214,18.8811478 L17.4551953,20.1170204 L17.4427347,20.1044466 C17.8755142,20.5520267 18.5582245,20.6503846 19.10602,20.3467366 L21.5833634,18.9735227 L21.6327827,18.9448099 C22.2001737,18.5996133 22.4452261,17.9010478 22.2122643,17.2835029 L22.2005204,17.254257 L21.4798475,15.0453802 L21.4665531,15.0099169 C21.4480954,14.9664982 21.4273898,14.9240737 21.4045186,14.882813 L21.3774595,14.8361618 C21.0064272,14.2243147 20.2215103,14.0046855 19.5787607,14.3287425 L17.8949461,15.2240991 L17.0855645,13.7634013 C16.7803107,13.2127087 16.083658,13.0181459 15.5306705,13.3246719 Z M17.2734524,2.50035059 C18.5262343,2.50786284 19.1604332,2.63715105 19.8189677,2.98933916 C20.4385579,3.32069965 20.9293004,3.81144206 21.2606608,4.4310323 C21.5755983,5.01991411 21.7122941,5.58933597 21.7430591,6.59903004 L21.7485853,6.86089194 L21.75,7.0958278 L21.7508563,10.2787701 C21.6032521,10.2597877 21.4527691,10.25 21.3,10.25 L20.25,10.25 L20.25,7.0958278 C20.25,5.98982639 20.16903,5.57052939 19.937941,5.13843059 C19.7463803,4.78024305 19.4697569,4.50361974 19.1115694,4.31205895 C18.6794706,4.08096999 18.2601736,4 17.1541722,4 L5.7471545,4.00022498 C4.7144027,4.00504512 4.30743549,4.08797268 3.88843059,4.31205895 C3.53024305,4.50361974 3.25361974,4.78024305 3.06205895,5.13843059 C2.84747634,5.53966519 2.76233305,5.92986151 2.75126454,6.86908336 L2.75,7.0958278 L2.75022498,15.5028455 C2.75504512,16.5355973 2.83797268,16.9425645 3.06205895,17.3615694 C3.25361974,17.7197569 3.53024305,17.9963803 3.88843059,18.187941 C4.28966519,18.4025237 4.67986151,18.4876669 5.61908336,18.4987355 L5.8458278,18.5 L12,18.5 L12,19.55 C12,19.7027691 12.0097877,19.8532521 12.0287701,20.0008563 L5.8458278,20 C4.51337933,20 3.860146,19.8738548 3.1810323,19.5106608 C2.56144206,19.1793004 2.07069965,18.6885579 1.73933916,18.0689677 C1.42440172,17.4800859 1.28770588,16.910664 1.25694091,15.90097 L1.25141472,15.6391081 L1.25,15.4041722 L1.25035059,6.97654762 C1.25786284,5.72376567 1.38715105,5.0895668 1.73933916,4.4310323 C2.07069965,3.81144206 2.56144206,3.32069965 3.1810323,2.98933916 C3.81487176,2.65035811 4.42616653,2.51787291 5.58818539,2.5017148 L5.8458278,2.5 L17.2734524,2.50035059 Z M16.3202486,14.1875669 L17.233898,15.8362691 C17.4074414,16.1494324 17.7999669,16.2656994 18.1160702,16.0975706 L19.9471574,15.1236534 C20.2007717,14.9831477 20.5071266,15.0687072 20.6392263,15.3070214 L20.6548929,15.3383787 L21.372569,17.5376371 L21.3858634,17.5731003 C21.4849544,17.8061967 21.3884774,18.081115 21.159155,18.2082305 L18.6818116,19.5814443 C18.4906168,19.6874254 18.2574679,19.6616901 18.1003133,19.5234498 L18.052995,19.4779319 L16.7128249,18.248675 L16.6914974,18.2245353 C16.5815825,18.0901921 16.5519231,17.9066206 16.6143704,17.7412667 L16.627574,17.7096755 L16.962397,17.1039636 C17.0715721,16.9062244 17.0713822,16.6662368 16.9618945,16.4686705 L15.8440548,14.4515738 C15.7744102,14.3259317 15.8222013,14.1635085 15.9548789,14.0899641 C16.0875564,14.0164198 16.2506245,14.0619618 16.3202486,14.1875669 Z M11.75,6.25 C12.1642136,6.25 12.5,6.58578644 12.5,7 L12.5,9.314 L14.7185922,7.09574766 C15.0114854,6.80285444 15.4863591,6.80285444 15.7792523,7.09574766 C16.0721456,7.38864088 16.0721456,7.86351461 15.7792523,8.15640783 L13.435,10.5 L14.1975978,10.5003446 C12.9095756,11.0170343 12,12.2772958 12,13.75 L12.0013685,16.2068384 C11.9227874,16.2347854 11.8381705,16.25 11.75,16.25 C11.3357864,16.25 11,15.9142136 11,15.5 L11,12.936 L8.53140783,15.4042523 C8.23851461,15.6971456 7.76364088,15.6971456 7.47074766,15.4042523 C7.17785444,15.1113591 7.17785444,14.6364854 7.47074766,14.3435922 L9.813,12 L6.5,12 C6.08578644,12 5.75,11.6642136 5.75,11.25 C5.75,10.8357864 6.08578644,10.5 6.5,10.5 L9.814,10.5 L7.47074766,8.15640783 C7.2044811,7.89014127 7.18027505,7.47347759 7.39812951,7.17986609 L7.47074766,7.09574766 C7.73701422,6.8294811 8.15367791,6.80527505 8.4472894,7.02312951 L8.53140783,7.09574766 L11,9.564 L11,7 C11,6.58578644 11.3357864,6.25 11.75,6.25 Z" id="path-1"></path>
    </defs>
    <g id="ic_celiakeyboard_handwritten" stroke="none" stroke-width="1" fill="none" fill-rule="evenodd">
        <mask id="mask-2" fill="white">
            <use xlink:href="#path-1"></use>
        </mask>
        <g id="蒙版" fill-rule="nonzero"></g>
        <g id="编组" mask="url(#mask-2)" fill-opacity="0.9">
            <g transform="translate(-0.000000, -0.000000)">
                <rect id="color/#000000" fill="#000000" x="0" y="0" width="24" height="24"></rect>
            </g>
        </g>
    </g>
</svg>