<?xml version="1.0" encoding="UTF-8"?>
<svg width="281px" height="320px" viewBox="0 0 281 320" version="1.1" xmlns="http://www.w3.org/2000/svg" xmlns:xlink="http://www.w3.org/1999/xlink">
    <title>ic_normal_white_grid_calendar</title>
    <defs>
        <path d="M78.0833333,0.541666667 C80.8447571,0.541666667 83.0833333,2.84420224 83.0833333,5.68452381 L83.083,9.45766667 L92.8352267,9.45833333 C101.878889,9.45833333 109.210227,16.7896706 109.210227,25.8333333 L109.210227,102.25 C109.210227,111.293663 101.878889,118.625 92.8352267,118.625 L16.41856,118.625 C7.37489724,118.625 0.0435600141,111.293663 0.0435600141,102.25 L0.0432189031,40.0761726 C0.0147441507,39.88129 0,39.6819502 0,39.4791667 C0,39.2763832 0.0147441507,39.0770433 0.0432189031,38.8821607 L0.0435600141,25.8333333 C0.0435600141,16.7896706 7.37489724,9.45833333 16.41856,9.45833333 L26.083,9.45766667 L26.0833333,5.68452381 C26.0833333,2.84420224 28.3219096,0.541666667 31.0833333,0.541666667 C33.8447571,0.541666667 36.0833333,2.84420224 36.0833333,5.68452381 L36.083,9.45766667 L73.083,9.45766667 L73.0833333,5.68452381 C73.0833333,2.84420224 75.3219096,0.541666667 78.0833333,0.541666667 Z M101.022,43.5726667 L8.231,43.5726667 L8.23106001,102.25 C8.23106001,106.771831 11.8967286,110.4375 16.41856,110.4375 L92.8352267,110.4375 C97.3570581,110.4375 101.022727,106.771831 101.022727,102.25 L101.022,43.5726667 Z M73.083,17.6456667 L36.083,17.6456667 L36.0833333,19.3988095 C36.0833333,22.2391311 33.8447571,24.5416667 31.0833333,24.5416667 C28.3219096,24.5416667 26.0833333,22.2391311 26.0833333,19.3988095 L26.083,17.6456667 L16.41856,17.6458333 C11.8967286,17.6458333 8.23106001,21.3115019 8.23106001,25.8333333 L8.231,35.3846667 L101.022,35.3846667 L101.022727,25.8333333 C101.022727,21.3115019 97.3570581,17.6458333 92.8352267,17.6458333 L83.083,17.6456667 L83.0833333,19.3988095 C83.0833333,22.2391311 80.8447571,24.5416667 78.0833333,24.5416667 C75.3219096,24.5416667 73.0833333,22.2391311 73.0833333,19.3988095 L73.083,17.6456667 Z" id="path-1"></path>
    </defs>
    <g id="页面-1" stroke="none" stroke-width="1" fill="none" fill-rule="evenodd">
        <g id="编组-4" transform="translate(0.428571, 0.000000)">
            <path d="M16,0 L196.183832,0 L196.183832,0 L196.040105,65.674268 C196.018004,75.773165 204.186861,83.9778551 214.285758,83.9999562 C214.299097,83.9999854 214.312437,84 214.325776,84 L280,84 L280,84 L280,304 C280,312.836556 272.836556,320 264,320 L16,320 C7.163444,320 1.082166e-15,312.836556 0,304 L0,16 C-2.85852284e-15,7.163444 7.163444,-1.53107837e-16 16,0 Z" id="矩形备份-136" fill="#67CC67"></path>
            <path d="M196,0 L280,84 L214.285714,84 C204.186793,84 196,75.8132069 196,65.7142857 L196,0 L196,0 Z" id="矩形备份-137" fill="#96ED96"></path>
            <g id="public/ic_calendar" transform="translate(73.571429, 124.000000)">
                <g id="symbol/frame/symbol_grid24"></g>
                <g id="calendar" transform="translate(10.916667, 1.458333)">
                    <mask id="mask-2" fill="white">
                        <use xlink:href="#path-1"></use>
                    </mask>
                    <use id="Combined-Shape" stroke="#FFFFFF" stroke-width="2" fill="#FFFFFF" fill-rule="nonzero" xlink:href="#path-1"></use>
                </g>
            </g>
        </g>
    </g>
</svg>