<?xml version="1.0" encoding="UTF-8"?>
<svg width="281px" height="320px" viewBox="0 0 281 320" version="1.1" xmlns="http://www.w3.org/2000/svg" xmlns:xlink="http://www.w3.org/1999/xlink">
    <title>ic_normal_white_grid_vedio</title>
    <g id="页面-1" stroke="none" stroke-width="1" fill="none" fill-rule="evenodd">
        <path d="M16.4285714,0 L196.612403,0 L196.612403,0 L196.468677,65.674268 C196.446576,75.773165 204.615433,83.9778551 214.71433,83.9999562 C214.727669,83.9999854 214.741008,84 214.754347,84 L280.428571,84 L280.428571,84 L280.428571,304 C280.428571,312.836556 273.265127,320 264.428571,320 L16.4285714,320 C7.59201543,320 0.428571429,312.836556 0.428571429,304 L0.428571429,16 C0.428571429,7.163444 7.59201543,-1.53107837e-16 16.4285714,0 Z" id="矩形备份-78" fill="#F57C43"></path>
        <path d="M196.428571,0 L280.428571,84 L214.714286,84 C204.615365,84 196.428571,75.8132069 196.428571,65.7142857 L196.428571,0 L196.428571,0 Z" id="矩形备份-79" fill="#FEB694"></path>
        <path d="M140.565665,139.629758 L183.717104,214.370242 C185.673988,217.759665 184.512686,222.093704 181.123263,224.050588 C180.045978,224.672559 178.823952,225 177.58001,225 L91.2771326,225 C87.3633639,225 84.1906274,221.827264 84.1906274,217.913495 C84.1906274,216.669553 84.5180684,215.447527 85.1400391,214.370242 L128.291478,139.629758 C130.248362,136.240335 134.582401,135.079032 137.971824,137.035917 C139.049109,137.657888 139.943694,138.552473 140.565665,139.629758 Z" id="多边形备份" fill="#FFFFFF" transform="translate(134.428571, 193.000000) rotate(-270.000000) translate(-134.428571, -193.000000) "></path>
    </g>
</svg>