<?xml version="1.0" encoding="UTF-8"?>
<svg width="281px" height="320px" viewBox="0 0 281 320" version="1.1" xmlns="http://www.w3.org/2000/svg" xmlns:xlink="http://www.w3.org/1999/xlink">
    <title>ic_normal_white_grid_chm</title>
    <g id="页面-1" stroke="none" stroke-width="1" fill="none" fill-rule="evenodd">
        <path d="M16.4285714,0 L196.612403,0 L196.612403,0 L196.468677,65.674268 C196.446576,75.773165 204.615433,83.9778551 214.71433,83.9999562 C214.727669,83.9999854 214.741008,84 214.754347,84 L280.428571,84 L280.428571,84 L280.428571,304 C280.428571,312.836556 273.265127,320 264.428571,320 L16.4285714,320 C7.59201543,320 0.428571429,312.836556 0.428571429,304 L0.428571429,16 C0.428571429,7.163444 7.59201543,-1.53107837e-16 16.4285714,0 Z" id="矩形备份-88" fill="#61A4FF"></path>
        <path d="M196.428571,0 L280.428571,84 L214.714286,84 C204.615365,84 196.428571,75.8132069 196.428571,65.7142857 L196.428571,0 L196.428571,0 Z" id="矩形备份-89" fill="#A2C9FF"></path>
        <path d="M94.3389494,195.104764 C94.1800389,188.949614 92.0024116,184.615791 87.8060673,182.103295 C81.6109112,179.049294 75.2712706,179.321118 68.7871454,182.918767 C64.8594507,185.510916 62.384103,189.572916 61.3611021,195.104764 C60.3381013,200.636613 60.1567864,206.5529 60.8171577,212.853627 C61.6948692,219.464892 63.7402826,224.082753 66.9533976,226.707213 C71.2103383,230.43909 77.3905007,231.612735 85.4938849,230.228147 C91.3905945,228.357728 94.3389494,223.803419 94.3389494,216.565221" id="路径-9" stroke="#FFFFFF" stroke-width="9.62321473" stroke-linecap="round" stroke-linejoin="round"></path>
        <line x1="115.781901" y1="182.018219" x2="115.781901" y2="228.545914" id="路径-10" stroke="#FFFFFF" stroke-width="9.62321473" stroke-linecap="round"></line>
        <line x1="149.052161" y1="204.422724" x2="117.776713" y2="204.422724" id="路径-10备份-2" stroke="#FFFFFF" stroke-width="9.62321473" stroke-linecap="round"></line>
        <line x1="149.052161" y1="182.018219" x2="149.052161" y2="228.545914" id="路径-10备份" stroke="#FFFFFF" stroke-width="9.62321473" stroke-linecap="round"></line>
        <polyline id="路径-10备份-3" stroke="#FFFFFF" stroke-width="9.62321473" stroke-linecap="round" stroke-linejoin="round" points="220.502438 228.545914 220.502438 182.018219 215.532639 182.018219 197.219822 228.545914 179.606877 182.018219 174.472624 182.018219 174.240854 228.545914"></polyline>
    </g>
</svg>