<?xml version="1.0" encoding="UTF-8"?>
<svg width="281px" height="320px" viewBox="0 0 281 320" version="1.1" xmlns="http://www.w3.org/2000/svg" xmlns:xlink="http://www.w3.org/1999/xlink">
    <title>ic_normal_white_grid_7z</title>
    <g id="页面-1" stroke="none" stroke-width="1" fill="none" fill-rule="evenodd">
        <g id="7z">
            <path d="M16.4285714,0 L196.612403,0 L196.612403,0 L196.468677,65.674268 C196.446576,75.773165 204.615433,83.9778551 214.71433,83.9999562 C214.727669,83.9999854 214.741008,84 214.754347,84 L280.428571,84 L280.428571,84 L280.428571,304 C280.428571,312.836556 273.265127,320 264.428571,320 L16.4285714,320 C7.59201543,320 0.428571429,312.836556 0.428571429,304 L0.428571429,16 C0.428571429,7.163444 7.59201543,-1.53107837e-16 16.4285714,0 Z" id="矩形备份-104" fill="#61A4FF"></path>
            <path d="M196.428571,0 L280.428571,84 L214.714286,84 C204.615365,84 196.428571,75.8132069 196.428571,65.7142857 L196.428571,0 L196.428571,0 Z" id="矩形备份-105" fill="#A2C9FF"></path>
            <g id="编组-134" transform="translate(97.428571, 198.000000)" stroke="#FFFFFF" stroke-linecap="round" stroke-linejoin="round" stroke-width="10.4">
                <path d="M3.63797881e-12,0 L32.1193124,0 C18.5050138,15.8544854 11.6978644,32.6458015 11.6978644,50.3739483" id="路径-27"></path>
                <polyline id="路径-28" points="52.1557188 0 85.8458163 0 52.1557188 51.1974216 85.8458163 51.1974216"></polyline>
            </g>
            <g id="编组-109" transform="translate(57.000000, 0.000000)" fill="#FFFFFF">
                <path d="M16,64 L41,64 C42.6568542,64 44,65.3431458 44,67 L44,77 C44,78.6568542 42.6568542,80 41,80 L16,80 L16,80 L16,64 Z" id="Rectangle-16-Copy-2"></path>
                <path d="M16,96 L41,96 C42.6568542,96 44,97.3431458 44,99 L44,112 L44,112 L16,112 L16,96 Z" id="Rectangle-16-Copy-4"></path>
                <path d="M0,48 L25,48 C26.6568542,48 28,49.3431458 28,51 L28,61 C28,62.6568542 26.6568542,64 25,64 L0,64 L0,64 L0,48 Z" id="Rectangle-16-Copy" transform="translate(14.000000, 56.000000) scale(-1, 1) translate(-14.000000, -56.000000) "></path>
                <path d="M19,32 L44,32 L44,32 L44,48 L19,48 C17.3431458,48 16,46.6568542 16,45 L16,35 C16,33.3431458 17.3431458,32 19,32 Z" id="Rectangle-16-Copy-6" transform="translate(30.000000, 40.000000) scale(-1, 1) translate(-30.000000, -40.000000) "></path>
                <path d="M16,0 L44,0 L44,16 L19,16 C17.3431458,16 16,14.6568542 16,13 L16,0 L16,0 Z" id="Rectangle-16-Copy-6备份-3" transform="translate(30.000000, 8.000000) scale(-1, 1) translate(-30.000000, -8.000000) "></path>
                <path d="M0,16 L25,16 C26.6568542,16 28,17.3431458 28,19 L28,29 C28,30.6568542 26.6568542,32 25,32 L0,32 L0,32 L0,16 Z" id="Rectangle-16-Copy-6备份-2" transform="translate(14.000000, 24.000000) scale(-1, 1) translate(-14.000000, -24.000000) "></path>
                <path d="M0,80 L25,80 C26.6568542,80 28,81.3431458 28,83 L28,93 C28,94.6568542 26.6568542,96 25,96 L0,96 L0,96 L0,80 Z" id="Rectangle-16-Copy-3" transform="translate(14.000000, 88.000000) scale(-1, 1) translate(-14.000000, -88.000000) "></path>
                <path d="M44,112 L44,138.122449 C44,141.368531 41.3685308,144 38.122449,144 L5.87755102,144 C2.63146923,144 -1.37882647e-15,141.368531 0,138.122449 L0,112 L44,112 Z M33,120 L11,120 L11,131 C11,132.656854 12.3431458,134 14,134 L14,134 L30,134 C31.6568542,134 33,132.656854 33,131 L33,131 L33,120 Z" id="Combined-Shape"></path>
            </g>
        </g>
    </g>
</svg>