<?xml version="1.0" encoding="UTF-8"?>
<svg width="281px" height="320px" viewBox="0 0 281 320" version="1.1" xmlns="http://www.w3.org/2000/svg" xmlns:xlink="http://www.w3.org/1999/xlink">
    <title>ic_normal_white_grid_wav</title>
    <defs>
        <path d="M103,8.70870844 L103,75.9729528 L103,75.9729528 C103,84.7187046 96.5675985,91.633881 87.9980585,92.6766594 C79.4285186,93.7194377 72.8996001,88.165752 72.8996001,81.2436471 C72.8996001,72.6562445 79.1563413,68.8966462 84.5101368,66.7013773 C89.8639324,64.5061083 93.7372792,60.3170123 93.7372792,56.2154084 L93.7372792,20.4803882 L47.448484,29.1354034 L47.448484,82.3824061 C47.448484,91.0841563 39.0208454,100.215983 31.3683909,101.741201 C23.7159363,103.26642 15,97.9230075 15,89.0637727 C15,80.2045378 22.7881245,75.2564436 26.9934831,73.6366543 C29.4140783,72.7043071 38.1920393,69.8500217 38.1920393,65.6178202 L38.1920393,16.7696047 C38.1920393,12.4810365 41.2834688,8.81699259 45.5108518,8.09515467 L92.7188125,0.0342583976 C97.509579,-0.783778879 102.056413,2.43675445 102.87445,7.22752092 C102.958,7.71682545 103,8.21232195 103,8.70870844 Z" id="path-1"></path>
    </defs>
    <g id="页面-1" stroke="none" stroke-width="1" fill="none" fill-rule="evenodd">
        <path d="M16.4285714,0 L196.612403,0 L196.612403,0 L196.468677,65.674268 C196.446576,75.773165 204.615433,83.9778551 214.71433,83.9999562 C214.727669,83.9999854 214.741008,84 214.754347,84 L280.428571,84 L280.428571,84 L280.428571,304 C280.428571,312.836556 273.265127,320 264.428571,320 L16.4285714,320 C7.59201543,320 0.428571429,312.836556 0.428571429,304 L0.428571429,16 C0.428571429,7.163444 7.59201543,-1.53107837e-16 16.4285714,0 Z" id="矩形备份-69" fill="#FB5BA5"></path>
        <path d="M196.428571,0 L280.428571,84 L214.714286,84 C204.615365,84 196.428571,75.8132069 196.428571,65.7142857 L196.428571,0 L196.428571,0 Z" id="矩形备份-70" fill="#FFA6B2"></path>
        <g id="编组-239" transform="translate(74.428571, 116.000000)">
            <mask id="mask-2" fill="white">
                <use xlink:href="#path-1"></use>
            </mask>
            <use id="Shape-Copy备份-4" fill="#FFFFFF" fill-rule="nonzero" xlink:href="#path-1"></use>
            <polyline id="路径-16" stroke="#FFFFFF" stroke-width="8.2" stroke-linecap="round" stroke-linejoin="round" points="54.1591239 163.83673 69.6421895 123 84.3631867 163.83673"></polyline>
            <line x1="61.0355273" y1="151.421979" x2="77.9589335" y2="151.421979" id="路径-17" stroke="#FFFFFF" stroke-width="8.2" stroke-linecap="round"></line>
            <polyline id="路径-25" stroke="#FFFFFF" stroke-width="8.2" stroke-linecap="round" stroke-linejoin="round" points="8.24229573e-13 124.27758 9.24369098 163.033721 22.1735372 124.27758 34.8475263 163.033721 44.372547 124.27758"></polyline>
            <polyline id="路径-22" stroke="#FFFFFF" stroke-width="8.2" stroke-linecap="round" stroke-linejoin="round" points="95.0241909 124.27758 109.853041 163.033721 124.681891 124.27758"></polyline>
        </g>
    </g>
</svg>