<?xml version="1.0" encoding="UTF-8"?>
<svg width="281px" height="320px" viewBox="0 0 281 320" version="1.1" xmlns="http://www.w3.org/2000/svg" xmlns:xlink="http://www.w3.org/1999/xlink">
    <title>ic_normal_white_grid_mp3</title>
    <defs>
        <path d="M93,8.70870844 L93,75.9729528 L93,75.9729528 C93,84.7187046 86.5675985,91.633881 77.9980585,92.6766594 C69.4285186,93.7194377 62.8996001,88.165752 62.8996001,81.2436471 C62.8996001,72.6562445 69.1563413,68.8966462 74.5101368,66.7013773 C79.8639324,64.5061083 83.7372792,60.3170123 83.7372792,56.2154084 L83.7372792,20.4803882 L37.448484,29.1354034 L37.448484,82.3824061 C37.448484,91.0841563 29.0208454,100.215983 21.3683909,101.741201 C13.7159363,103.26642 5,97.9230075 5,89.0637727 C5,80.2045378 12.7881245,75.2564436 16.9934831,73.6366543 C19.4140783,72.7043071 28.1920393,69.8500217 28.1920393,65.6178202 L28.1920393,16.7696047 C28.1920393,12.4810365 31.2834688,8.81699259 35.5108518,8.09515467 L82.7188125,0.0342583976 C87.509579,-0.783778879 92.0564128,2.43675445 92.87445,7.22752092 C92.9580002,7.71682545 93,8.21232195 93,8.70870844 Z" id="path-1"></path>
    </defs>
    <g id="页面-1" stroke="none" stroke-width="1" fill="none" fill-rule="evenodd">
        <g id="音乐-mp3">
            <path d="M16.4285714,0 L196.612403,0 L196.612403,0 L196.468677,65.674268 C196.446576,75.773165 204.615433,83.9778551 214.71433,83.9999562 C214.727669,83.9999854 214.741008,84 214.754347,84 L280.428571,84 L280.428571,84 L280.428571,304 C280.428571,312.836556 273.265127,320 264.428571,320 L16.4285714,320 C7.59201543,320 0.428571429,312.836556 0.428571429,304 L0.428571429,16 C0.428571429,7.163444 7.59201543,-1.53107837e-16 16.4285714,0 Z" id="矩形备份-61" fill="#FB5BA5"></path>
            <path d="M196.428571,0 L280.428571,84 L214.714286,84 C204.615365,84 196.428571,75.8132069 196.428571,65.7142857 L196.428571,0 L196.428571,0 Z" id="矩形备份-68" fill="#FFA6B2"></path>
            <g id="编组-240" transform="translate(83.428571, 116.000000)">
                <mask id="mask-2" fill="white">
                    <use xlink:href="#path-1"></use>
                </mask>
                <use id="Shape-Copy备份-3" fill="#FFFFFF" fill-rule="nonzero" xlink:href="#path-1"></use>
                <path d="M53.8125,146.0625 L65.9413951,146.0625 C72.5394527,146.0625 77.8882353,140.92669 77.8882353,134.591347 C77.8882353,128.256004 72.5394527,123 65.9413951,123 L53.8125,123 L53.8125,162.492946" id="路径" stroke="#FFFFFF" stroke-width="7.6875" stroke-linecap="round" stroke-linejoin="round"></path>
                <polyline id="路径-10备份-3" stroke="#FFFFFF" stroke-width="7.6875" stroke-linecap="round" stroke-linejoin="round" points="38.4375 161.442051 38.4375 124.982194 34.308228 124.982194 19.0926034 161.442051 4.45848372 124.982194 0.1925716 124.982194 0 161.442051"></polyline>
                <path d="M92.2059844,129.370003 C93.9075892,125.657138 97.346131,123.800705 102.52161,123.800705 C107.697088,123.800705 111.0373,126.23195 112.542245,131.09444 C113.063164,135.737242 111.302895,139.11362 107.261437,141.223572 C103.232979,142.549273 100.769235,143.212123 99.8702059,143.212123 C106.558296,142.588397 111.0418,145.339922 113.320717,151.4667 C113.7927,158.116934 110.280555,162.027792 102.784282,163.199274 C98.2093269,163.199274 94.6832277,161.003187 92.2059844,156.611013" id="路径-24" stroke="#FFFFFF" stroke-width="7.6875" stroke-linecap="round" stroke-linejoin="round"></path>
            </g>
        </g>
    </g>
</svg>