<?xml version="1.0" encoding="UTF-8"?>
<svg width="281px" height="320px" viewBox="0 0 281 320" version="1.1" xmlns="http://www.w3.org/2000/svg" xmlns:xlink="http://www.w3.org/1999/xlink">
    <title>ic_normal_white_grid_html</title>
    <g id="页面-1" stroke="none" stroke-width="1" fill="none" fill-rule="evenodd">
        <path d="M16.4285714,0 L196.612403,0 L196.612403,0 L196.468677,65.674268 C196.446576,75.773165 204.615433,83.9778551 214.71433,83.9999562 C214.727669,83.9999854 214.741008,84 214.754347,84 L280.428571,84 L280.428571,84 L280.428571,304 C280.428571,312.836556 273.265127,320 264.428571,320 L16.4285714,320 C7.59201543,320 0.428571429,312.836556 0.428571429,304 L0.428571429,16 C0.428571429,7.163444 7.59201543,-1.53107837e-16 16.4285714,0 Z" id="矩形备份-92" fill="#61A4FF"></path>
        <path d="M196.428571,0 L280.428571,84 L214.714286,84 C204.615365,84 196.428571,75.8132069 196.428571,65.7142857 L196.428571,0 L196.428571,0 Z" id="矩形备份-93" fill="#A2C9FF"></path>
        <g id="编组-247" transform="translate(36.428571, 179.000000)" stroke="#FFFFFF" stroke-linecap="round" stroke-width="10.2123911">
            <polyline id="路径-10备份-3" stroke-linejoin="round" points="157.770936 51.8101844 157.770936 2.43385488 152.496863 2.43385488 133.062853 51.8101844 114.371565 2.43385488 108.922969 2.43385488 108.677009 51.8101844"></polyline>
            <line x1="55.6150535" y1="1.27654889" x2="89.8893348" y2="1.27654889" id="路径-11"></line>
            <line x1="72.7521942" y1="50.303908" x2="72.7521942" y2="1.27654889" id="路径-12"></line>
            <line x1="1.27654889" y1="0.292071066" x2="1.27654889" y2="49.6684005" id="路径-10"></line>
            <line x1="36.5837638" y1="24.0682802" x2="3.39349258" y2="24.0682802" id="路径-10备份-2"></line>
            <line x1="36.5837638" y1="0.292071066" x2="36.5837638" y2="49.6684005" id="路径-10备份"></line>
            <polyline id="路径-15" stroke-linejoin="round" points="181.190999 1.27654889 181.190999 51.3540268 208.528781 51.3540268"></polyline>
        </g>
    </g>
</svg>