<?xml version="1.0" encoding="UTF-8"?>
<svg width="281px" height="320px" viewBox="0 0 281 320" version="1.1" xmlns="http://www.w3.org/2000/svg" xmlns:xlink="http://www.w3.org/1999/xlink">
    <title>ic_normal_white_grid_flac</title>
    <defs>
        <path d="M104,8.70870844 L104,75.9729528 L104,75.9729528 C104,84.7187046 97.5675985,91.633881 88.9980585,92.6766594 C80.4285186,93.7194377 73.8996001,88.165752 73.8996001,81.2436471 C73.8996001,72.6562445 80.1563413,68.8966462 85.5101368,66.7013773 C90.8639324,64.5061083 94.7372792,60.3170123 94.7372792,56.2154084 L94.7372792,20.4803882 L48.448484,29.1354034 L48.448484,82.3824061 C48.448484,91.0841563 40.0208454,100.215983 32.3683909,101.741201 C24.7159363,103.26642 16,97.9230075 16,89.0637727 C16,80.2045378 23.7881245,75.2564436 27.9934831,73.6366543 C30.4140783,72.7043071 39.1920393,69.8500217 39.1920393,65.6178202 L39.1920393,16.7696047 C39.1920393,12.4810365 42.2834688,8.81699259 46.5108518,8.09515467 L93.7188125,0.0342583976 C98.509579,-0.783778879 103.056413,2.43675445 103.87445,7.22752092 C103.958,7.71682545 104,8.21232195 104,8.70870844 Z" id="path-1"></path>
    </defs>
    <g id="页面-1" stroke="none" stroke-width="1" fill="none" fill-rule="evenodd">
        <path d="M16.4285714,0 L196.612403,0 L196.612403,0 L196.468677,65.674268 C196.446576,75.773165 204.615433,83.9778551 214.71433,83.9999562 C214.727669,83.9999854 214.741008,84 214.754347,84 L280.428571,84 L280.428571,84 L280.428571,304 C280.428571,312.836556 273.265127,320 264.428571,320 L16.4285714,320 C7.59201543,320 0.428571429,312.836556 0.428571429,304 L0.428571429,16 C0.428571429,7.163444 7.59201543,-1.53107837e-16 16.4285714,0 Z" id="矩形备份-59" fill="#FB5BA5"></path>
        <path d="M196.428571,0 L280.428571,84 L214.714286,84 C204.615365,84 196.428571,75.8132069 196.428571,65.7142857 L196.428571,0 L196.428571,0 Z" id="矩形备份-60" fill="#FFA6B2"></path>
        <g id="编组-241" transform="translate(72.428571, 116.000000)">
            <mask id="mask-2" fill="white">
                <use xlink:href="#path-1"></use>
            </mask>
            <use id="Shape-Copy备份-2" fill="#FFFFFF" fill-rule="nonzero" xlink:href="#path-1"></use>
            <path d="M135.935899,134.881117 C135.811942,130.072697 134.113295,126.687104 130.839959,124.724335 C126.00746,122.338542 121.062256,122.550892 116.004348,125.361384 C112.940571,127.386378 111.009689,130.559622 110.211702,134.881117 C109.413716,139.202611 109.272282,143.82443 109.787401,148.746574 C110.472055,153.911311 112.067569,157.518796 114.573943,159.569031 C117.894547,162.484383 122.715351,163.401237 129.036353,162.319594 C133.63605,160.858418 135.935899,157.30058 135.935899,151.646081" id="路径-9" stroke="#FFFFFF" stroke-width="7.93548387" stroke-linecap="round" stroke-linejoin="round"></path>
            <polyline id="路径-16" stroke="#FFFFFF" stroke-width="7.93548387" stroke-linecap="round" stroke-linejoin="round" points="67.5346202 163.288592 82.5182321 123.769176 96.7643584 163.288592"></polyline>
            <polyline id="路径-15" stroke="#FFFFFF" stroke-width="7.93548387" stroke-linecap="round" stroke-linejoin="round" points="35.4197702 123 35.4197702 161.443681 56.5810605 161.443681"></polyline>
            <polyline id="路径-20" stroke="#FFFFFF" stroke-width="7.93548387" stroke-linecap="round" stroke-linejoin="round" points="2.64677169e-13 161.805108 2.64677169e-13 123 22.2732233 123"></polyline>
            <line x1="2.01059535" y1="142.934011" x2="18.0779095" y2="142.934011" id="路径-21" stroke="#FFFFFF" stroke-width="7.93548387" stroke-linecap="round"></line>
            <line x1="74.1892041" y1="151.274317" x2="90.566694" y2="151.274317" id="路径-17" stroke="#FFFFFF" stroke-width="7.93548387" stroke-linecap="round"></line>
        </g>
    </g>
</svg>