<?xml version="1.0" encoding="UTF-8"?>
<svg width="281px" height="320px" viewBox="0 0 281 320" version="1.1" xmlns="http://www.w3.org/2000/svg" xmlns:xlink="http://www.w3.org/1999/xlink">
    <title>ic_normal_white_grid_log</title>
    <g id="页面-1" stroke="none" stroke-width="1" fill="none" fill-rule="evenodd">
        <path d="M16.4285714,0 L196.612403,0 L196.612403,0 L196.468677,65.674268 C196.446576,75.773165 204.615433,83.9778551 214.71433,83.9999562 C214.727669,83.9999854 214.741008,84 214.754347,84 L280.428571,84 L280.428571,84 L280.428571,304 C280.428571,312.836556 273.265127,320 264.428571,320 L16.4285714,320 C7.59201543,320 0.428571429,312.836556 0.428571429,304 L0.428571429,16 C0.428571429,7.163444 7.59201543,-1.53107837e-16 16.4285714,0 Z" id="矩形备份-74" fill="#B4C4D0"></path>
        <path d="M196.428571,0 L280.428571,84 L214.714286,84 C204.615365,84 196.428571,75.8132069 196.428571,65.7142857 L196.428571,0 L196.428571,0 Z" id="矩形备份-75" fill="#D2DDE6"></path>
        <g id="编组-245" transform="translate(74.428571, 179.000000)" stroke="#FFFFFF" stroke-width="9.6744186">
            <polyline id="路径-15" stroke-linecap="round" stroke-linejoin="round" points="-2.32702746e-13 0.932617099 -2.32702746e-13 48.372093 25.8976706 48.372093"></polyline>
            <path d="M132.500688,15.1851347 C132.340932,8.99723351 130.151718,4.64035067 125.933045,2.11448618 C119.704926,-0.955764238 113.331553,-0.682493997 106.812926,2.9342969 C102.864333,5.54023927 100.375814,9.62385187 99.3473698,15.1851347 C98.3189257,20.7464175 98.1366462,26.694185 98.8005311,33.028437 C99.6829129,39.6748791 101.73921,44.3173121 104.969421,46.9557358 C109.249012,50.7074696 115.462059,51.8873592 123.60856,50.4954047 C128.23373,48.84473 131.016884,46.970794 131.95802,44.8735965 C132.562489,43.5266181 132.743378,38.4157839 132.500688,29.5410941 L118.644518,29.5410941" id="路径-9" stroke-linecap="round" stroke-linejoin="round"></path>
            <ellipse id="椭圆形" cx="58.1308075" cy="24.1860465" rx="19.3488372" ry="24.1860465"></ellipse>
        </g>
    </g>
</svg>