<?xml version="1.0" encoding="UTF-8"?>
<svg width="281px" height="320px" viewBox="0 0 281 320" version="1.1" xmlns="http://www.w3.org/2000/svg" xmlns:xlink="http://www.w3.org/1999/xlink">
    <title>ic_normal_white_grid_xml</title>
    <g id="页面-1" stroke="none" stroke-width="1" fill="none" fill-rule="evenodd">
        <path d="M16.4285714,0 L196.612403,0 L196.612403,0 L196.468677,65.674268 C196.446576,75.773165 204.615433,83.9778551 214.71433,83.9999562 C214.727669,83.9999854 214.741008,84 214.754347,84 L280.428571,84 L280.428571,84 L280.428571,304 C280.428571,312.836556 273.265127,320 264.428571,320 L16.4285714,320 C7.59201543,320 0.428571429,312.836556 0.428571429,304 L0.428571429,16 C0.428571429,7.163444 7.59201543,-1.53107837e-16 16.4285714,0 Z" id="矩形备份-84" fill="#B4C4D0"></path>
        <path d="M196.428571,0 L280.428571,84 L214.714286,84 C204.615365,84 196.428571,75.8132069 196.428571,65.7142857 L196.428571,0 L196.428571,0 Z" id="矩形备份-85" fill="#D2DDE6"></path>
        <g id="编组-34" transform="translate(61.428571, 179.000000)" stroke="#FFFFFF" stroke-linecap="round" stroke-width="10.4">
            <polyline id="路径-15" stroke-linejoin="round" points="130.409382 -8.8817842e-14 130.409382 50.9974366 158.249378 50.9974366"></polyline>
            <polyline id="路径-10备份-3" stroke-linejoin="round" points="106.595817 51.4619741 106.595817 1.17856652 101.224855 1.17856652 81.433829 51.4619741 62.3991684 1.17856652 56.8504787 1.17856652 56.6 51.4619741"></polyline>
            <line x1="9.04165631e-13" y1="-1.0658141e-13" x2="31.3016153" y2="49.9280264" id="路径-13"></line>
            <line x1="31.3016153" y1="1.77635684e-13" x2="-1.3500312e-13" y2="49.9280264" id="路径-14"></line>
        </g>
    </g>
</svg>