<?xml version="1.0" encoding="UTF-8"?>
<svg width="281px" height="320px" viewBox="0 0 281 320" version="1.1" xmlns="http://www.w3.org/2000/svg" xmlns:xlink="http://www.w3.org/1999/xlink">
    <title>ic_normal_white_grid_applications</title>
    <g id="页面-1" stroke="none" stroke-width="1" fill="none" fill-rule="evenodd">
        <path d="M16,0 L196.183832,0 L196.183832,0 L196.040105,65.674268 C196.018004,75.773165 204.186861,83.9778551 214.285758,83.9999562 C214.299097,83.9999854 214.312437,84 214.325776,84 L280,84 L280,84 L280,304 C280,312.836556 272.836556,320 264,320 L16,320 C7.163444,320 1.082166e-15,312.836556 0,304 L0,16 C-2.85852284e-15,7.163444 7.163444,-1.53107837e-16 16,0 Z" id="矩形备份-66" fill="#38C48C"></path>
        <path d="M196,0 L280,84 L214.285714,84 C204.186793,84 196,75.8132069 196,65.7142857 L196,0 L196,0 Z" id="矩形备份-67" fill="#5FE5B0"></path>
        <g id="编组-244" transform="translate(85.998571, 148.000000)">
            <path d="M91.8,0 L16.2,0 C7.25298705,0 0,7.25298705 0,16.2 L0,91.8 C0,100.747013 7.25298705,108 16.2,108 L91.8,108 C100.747013,108 108,100.747013 108,91.8 L108,16.2 C108,7.25298705 100.747013,0 91.8,0 Z" id="路径" fill="#FFFFFF" fill-rule="nonzero"></path>
            <g id="编组-119" transform="translate(18.000000, 18.000000)" fill="#38C48C">
                <circle id="椭圆形" cx="8" cy="8" r="8"></circle>
                <circle id="椭圆形备份" cx="64" cy="8" r="8"></circle>
            </g>
            <path d="M26,26 C26,41.463973 38.536027,54 54,54 C69.463973,54 82,41.463973 82,26" id="路径" stroke="#38C48C" stroke-width="6"></path>
        </g>
    </g>
</svg>