<?xml version="1.0" encoding="UTF-8"?>
<svg width="281px" height="320px" viewBox="0 0 281 320" version="1.1" xmlns="http://www.w3.org/2000/svg" xmlns:xlink="http://www.w3.org/1999/xlink">
    <title>ic_normal_white_grid_contacts</title>
    <defs>
        <path d="M74.8504025,66.2138176 C90.7499163,66.2138176 103.639019,79.1029202 103.639019,95.002434 L103.639019,115.154465 C103.639019,119.92432 99.7722881,123.79105 95.002434,123.79105 L8.63658491,123.79105 C3.86673077,123.79105 4.13685234e-15,119.92432 0,115.154465 L0,95.002434 C-1.94712887e-15,79.1029202 12.8891026,66.2138176 28.7886164,66.2138176 L74.8504025,66.2138176 Z M51.8203084,0 C66.9245558,0 79.168695,12.2444969 79.168695,27.3491855 C79.168695,42.4538742 66.9245558,54.6983711 51.8203084,54.6983711 C36.7144631,54.6983711 24.4703239,42.4538742 24.4703239,27.3491855 C24.4703239,12.2444969 36.7144631,0 51.8203084,0 Z" id="path-1"></path>
    </defs>
    <g id="页面-1" stroke="none" stroke-width="1" fill="none" fill-rule="evenodd">
        <path d="M16.4285714,0 L196.612403,0 L196.612403,0 L196.468677,65.674268 C196.446576,75.773165 204.615433,83.9778551 214.71433,83.9999562 C214.727669,83.9999854 214.741008,84 214.754347,84 L280.428571,84 L280.428571,84 L280.428571,304 C280.428571,312.836556 273.265127,320 264.428571,320 L16.4285714,320 C7.59201543,320 0.428571429,312.836556 0.428571429,304 L0.428571429,16 C0.428571429,7.163444 7.59201543,-1.53107837e-16 16.4285714,0 Z" id="矩形备份-96" fill="#67CC67"></path>
        <path d="M196.428571,0 L280.428571,84 L214.714286,84 C204.615365,84 196.428571,75.8132069 196.428571,65.7142857 L196.428571,0 L196.428571,0 Z" id="矩形备份-97" fill="#96ED96"></path>
        <g id="Group" transform="translate(88.428571, 140.000000)">
            <mask id="mask-2" fill="white">
                <use xlink:href="#path-1"></use>
            </mask>
            <use id="合并形状" fill="#FFFFFF" xlink:href="#path-1"></use>
        </g>
    </g>
</svg>