<?xml version="1.0" encoding="UTF-8"?>
<svg width="24px" height="24px" viewBox="0 0 24 24" version="1.1" xmlns="http://www.w3.org/2000/svg" xmlns:xlink="http://www.w3.org/1999/xlink">
    <title>ic_contact_call_2_volte_dl_center_dial</title>
    <g id="ic_contact_call_2_volte_dl_center_dial" stroke="none" stroke-width="1" fill="none" fill-rule="evenodd">
        <path d="M9.00356295,16 C9.35018663,16 9.6329318,16.1126209 9.85154394,16.3372022 C10.0701561,16.562444 10.2327791,16.9306912 10.3396675,17.4422741 C10.4465558,17.9541873 10.5,18.6384996 10.5,19.4955414 C10.5,20.358528 10.4465558,21.0458127 10.3396675,21.5577259 C10.2327791,22.0693088 10.0701561,22.437556 9.85154394,22.6627978 C9.6329318,22.8877094 9.35018663,23 9.00356295,23 C8.65210383,23 8.36681371,22.8890304 8.14871055,22.6674216 C7.92984391,22.4454824 7.7674754,22.0785563 7.66058704,21.5666431 C7.55369868,21.0553904 7.5,20.364803 7.5,19.4955414 C7.5,18.6325548 7.55369868,17.9465912 7.66058704,17.4379807 C7.7674754,16.9290399 7.93111639,16.562444 8.152019,16.3372022 C8.37292162,16.1126209 8.65668476,16 9.00356295,16 Z M4.42829892,16 L5.20701917,20.5980493 L5.91641819,16 L7.29580517,16 L5.86680248,22.9969276 L4.47791462,22.9969276 L3,16 L4.42829892,16 Z M12.7852023,16 L12.7852023,21.7447452 L14.6572275,21.7447452 L14.6572275,22.9969276 L11.3959626,22.9969276 L11.3959626,16 L12.7852023,16 Z M21.9215298,16 L21.9215298,17.2142892 L20.0692101,17.2142892 L20.0692101,18.8392587 L21.74418,18.8392587 L21.74418,20.0436479 L20.0692101,20.0436479 L20.0692101,21.7833211 L22,21.7833211 L22,22.9969276 L18.6799704,22.9969276 L18.6799704,16 L21.9215298,16 Z M17.9584313,16 L17.9584313,17.2429651 L16.6972775,17.2429651 L16.6972775,22.9969276 L15.298185,22.9969276 L15.298185,17.2429651 L14.0370312,17.2429651 L14.0370312,16 L17.9584313,16 Z M9.00406504,17.8 C8.82549361,17.8 8.69657375,17.9369998 8.61788618,18.2107442 C8.53919861,18.4844887 8.5,18.9309498 8.5,19.5501276 C8.5,20.1693053 8.53919861,20.6157665 8.61788618,20.8895109 C8.69657375,21.1632553 8.82549361,21.3 9.00406504,21.3 C9.18292683,21.3 9.31039489,21.1632553 9.38617886,20.8895109 C9.46196283,20.6157665 9.5,20.1693053 9.5,19.5501276 C9.5,18.9309498 9.46341463,18.4844887 9.3902439,18.2107442 C9.31707317,17.9369998 9.18844367,17.8 9.00406504,17.8 Z M6.94835318,1.02493489 C7.46943192,0.925069898 8.00290068,1.13070493 8.33446451,1.54266972 L8.33446451,1.54266972 L9.40768429,2.87373974 C9.47452058,2.9571053 9.54257842,3.04047085 9.6141264,3.12036284 C10.0514877,3.61292816 10.0294966,4.35881985 9.5638683,4.82501476 L9.5638683,4.82501476 L8.80249304,5.54317428 C8.50003727,5.84489135 8.44604572,6.31411995 8.6721361,6.67607744 C9.52530219,8.04848289 11.8282748,10.350588 13.3178689,11.2639618 C13.6808704,11.4858918 14.1494923,11.4307005 14.4504212,11.1305769 L14.4504212,11.1305769 L15.1449602,10.4556633 C15.603562,10.0020525 16.3336581,9.97022779 16.8303515,10.3821974 C16.9114974,10.4499319 16.9928177,10.5174927 17.0772793,10.581059 L17.0772793,10.581059 L18.5838006,11.7163936 C19.1387331,12.2718902 19.1387331,13.1691385 18.5838006,13.7246351 L18.5838006,13.7246351 L18.1475324,14.1588307 C17.4695716,14.8335707 16.4972171,15.133513 15.5573209,14.9442037 C11.5005501,14.1270476 6.02346459,8.53391357 5.07222541,4.43892804 C4.85179416,3.47937846 5.14346966,2.47448869 5.84407111,1.77974051 L5.84407111,1.77974051 L6.21228147,1.41327943 C6.41297107,1.21331498 6.66942558,1.07801198 6.94835318,1.02493489 Z M16.5694823,1 C17.0161541,1 17.3501362,1.12598878 17.5708447,1.37825399 C17.7915531,1.63080685 17.9019074,1.9690781 17.9019074,2.39306774 C17.9019074,2.68847979 17.8432269,2.98935711 17.726158,3.29512441 C17.6087972,3.60146699 17.3977228,4.04703006 17.0926431,4.6323889 L16.3896458,5.9690781 L18,5.9690781 L18,7 L15,7 L15,6.13821372 L16.0953678,4.14885661 C16.3295056,3.7194017 16.4877384,3.3972386 16.5694823,3.18236732 C16.6512262,2.96749604 16.6920981,2.75291241 16.6920981,2.53804113 C16.6920981,2.37724723 16.6728299,2.25902488 16.6348774,2.18366173 C16.5966329,2.10858622 16.5367847,2.07090465 16.4550409,2.07090465 C16.3405995,2.07090465 16.2477618,2.14741838 16.1768198,2.30044585 C16.1061697,2.45347332 16.0407746,2.70199914 15.9809264,3.04544801 L15.0245232,2.52222062 C15.2040677,1.50711923 15.719346,1 16.5694823,1 Z" id="形状结合" fill="#000000"></path>
    </g>
</svg>