<?xml version="1.0" encoding="UTF-8"?>
<svg width="24px" height="24px" viewBox="0 0 24 24" version="1.1" xmlns="http://www.w3.org/2000/svg" xmlns:xlink="http://www.w3.org/1999/xlink">
    <title>ic_celiakeyboard_thumb_mode</title>
    <defs>
        <path d="M7.1277704,1.25 L17.169864,1.25169648 C18.7090792,1.26994521 19.4939169,1.43785502 20.3073906,1.87290551 C21.0899438,2.29141954 21.7085805,2.91005624 22.1270945,3.69260945 C22.5893356,4.55692524 22.75,5.38891362 22.75,7.1277704 L22.75,7.1277704 L22.75,16.8722296 C22.75,18.6110864 22.5893356,19.4430748 22.1270945,20.3073906 C21.7085805,21.0899438 21.0899438,21.7085805 20.3073906,22.1270945 C19.4430748,22.5893356 18.6110864,22.75 16.8722296,22.75 L16.8722296,22.75 L7.1277704,22.75 C5.38891362,22.75 4.55692524,22.5893356 3.69260945,22.1270945 C2.91005624,21.7085805 2.29141954,21.0899438 1.87290551,20.3073906 C1.41066437,19.4430748 1.25,18.6110864 1.25,16.8722296 L1.25,16.8722296 L1.25169648,6.83013601 C1.26994521,5.29092077 1.43785502,4.50608313 1.87290551,3.69260945 C2.29141954,2.91005624 2.91005624,2.29141954 3.69260945,1.87290551 C4.55692524,1.41066437 5.38891362,1.25 7.1277704,1.25 L7.1277704,1.25 Z M17.045998,2.7505388 L16.8722296,2.75 L6.87017614,2.75121903 C6.78734857,2.75203845 6.70749484,2.75327766 6.63042492,2.75495686 L6.63042492,2.75495686 L6.19989092,2.77047329 C5.33285874,2.81623142 4.87206136,2.94316827 4.40000774,3.19562531 C3.87885724,3.47433964 3.47433964,3.87885724 3.19562531,4.40000774 C2.94316827,4.87206136 2.81623142,5.33285874 2.77047329,6.19989092 L2.77047329,6.19989092 L2.75495686,6.63042492 C2.75159847,6.78456476 2.75,6.94983984 2.75,7.1277704 L2.75,16.8722296 L2.75495686,17.3695751 L2.77047329,17.8001091 C2.81623142,18.6671413 2.94316827,19.1279386 3.19562531,19.5999923 C3.47433964,20.1211428 3.87885724,20.5256604 4.40000774,20.8043747 C4.87206136,21.0568317 5.33285874,21.1837686 6.19989092,21.2295267 L6.19989092,21.2295267 L6.63042492,21.2450431 L7.1277704,21.25 L16.8722296,21.25 L17.3695751,21.2450431 L17.8001091,21.2295267 C18.6671413,21.1837686 19.1279386,21.0568317 19.5999923,20.8043747 C20.1211428,20.5256604 20.5256604,20.1211428 20.8043747,19.5999923 C21.0568317,19.1279386 21.1837686,18.6671413 21.2295267,17.8001091 L21.2295267,17.8001091 L21.2450431,17.3695751 L21.25,16.8722296 L21.25,7.1277704 L21.2450431,6.63042492 L21.2295267,6.19989092 C21.1837686,5.33285874 21.0568317,4.87206136 20.8043747,4.40000774 C20.5256604,3.87885724 20.1211428,3.47433964 19.5999923,3.19562531 C19.1279386,2.94316827 18.6671413,2.81623142 17.8001091,2.77047329 L17.8001091,2.77047329 L17.3695751,2.75495686 C17.2154352,2.75159847 17.0501602,2.75 16.8722296,2.75 Z M9.19298246,16.3377193 C9.60719602,16.3377193 9.94298246,16.6735057 9.94298246,17.0877193 C9.94298246,17.4674151 9.66082857,17.7812103 9.29475301,17.8308727 L9.19298246,17.8377193 L4.98245614,17.8377193 C4.56824258,17.8377193 4.23245614,17.5019329 4.23245614,17.0877193 C4.23245614,16.7080235 4.51461002,16.3942283 4.88068558,16.3445659 L4.98245614,16.3377193 L9.19298246,16.3377193 Z M19.0175439,16.3377193 C19.4317574,16.3377193 19.7675439,16.6735057 19.7675439,17.0877193 C19.7675439,17.4674151 19.48539,17.7812103 19.1193144,17.8308727 L19.0175439,17.8377193 L14.8070175,17.8377193 C14.392804,17.8377193 14.0570175,17.5019329 14.0570175,17.0877193 C14.0570175,16.7080235 14.3391714,16.3942283 14.705247,16.3445659 L14.8070175,16.3377193 L19.0175439,16.3377193 Z M6.03508772,13.8815789 C6.44930128,13.8815789 6.78508772,14.2173654 6.78508772,14.6315789 C6.78508772,15.0112747 6.50293384,15.3250699 6.13685828,15.3747323 L6.03508772,15.3815789 L4.98245614,15.3815789 C4.56824258,15.3815789 4.23245614,15.0457925 4.23245614,14.6315789 C4.23245614,14.2518832 4.51461002,13.938088 4.88068558,13.8884256 L4.98245614,13.8815789 L6.03508772,13.8815789 Z M9.19298246,13.8815789 C9.60719602,13.8815789 9.94298246,14.2173654 9.94298246,14.6315789 C9.94298246,15.0112747 9.66082857,15.3250699 9.29475301,15.3747323 L9.19298246,15.3815789 L8.14035088,15.3815789 C7.72613731,15.3815789 7.39035088,15.0457925 7.39035088,14.6315789 C7.39035088,14.2518832 7.67250476,13.938088 8.03858032,13.8884256 L8.14035088,13.8815789 L9.19298246,13.8815789 Z M15.8596491,13.8815789 C16.2738627,13.8815789 16.6096491,14.2173654 16.6096491,14.6315789 C16.6096491,15.0112747 16.3274952,15.3250699 15.9614197,15.3747323 L15.8596491,15.3815789 L14.8070175,15.3815789 C14.392804,15.3815789 14.0570175,15.0457925 14.0570175,14.6315789 C14.0570175,14.2518832 14.3391714,13.938088 14.705247,13.8884256 L14.8070175,13.8815789 L15.8596491,13.8815789 Z M19.0175439,13.8815789 C19.4317574,13.8815789 19.7675439,14.2173654 19.7675439,14.6315789 C19.7675439,15.0112747 19.48539,15.3250699 19.1193144,15.3747323 L19.0175439,15.3815789 L17.9649123,15.3815789 C17.5506987,15.3815789 17.2149123,15.0457925 17.2149123,14.6315789 C17.2149123,14.2518832 17.4970662,13.938088 17.8631417,13.8884256 L17.9649123,13.8815789 L19.0175439,13.8815789 Z M6.03508772,11.6008772 C6.44930128,11.6008772 6.78508772,11.9366636 6.78508772,12.3508772 C6.78508772,12.730573 6.50293384,13.0443682 6.13685828,13.0940306 L6.03508772,13.1008772 L4.98245614,13.1008772 C4.56824258,13.1008772 4.23245614,12.7650908 4.23245614,12.3508772 C4.23245614,11.9711814 4.51461002,11.6573862 4.88068558,11.6077238 L4.98245614,11.6008772 L6.03508772,11.6008772 Z M9.19298246,11.6008772 C9.60719602,11.6008772 9.94298246,11.9366636 9.94298246,12.3508772 C9.94298246,12.730573 9.66082857,13.0443682 9.29475301,13.0940306 L9.19298246,13.1008772 L8.14035088,13.1008772 C7.72613731,13.1008772 7.39035088,12.7650908 7.39035088,12.3508772 C7.39035088,11.9711814 7.67250476,11.6573862 8.03858032,11.6077238 L8.14035088,11.6008772 L9.19298246,11.6008772 Z M15.8596491,11.6008772 C16.2738627,11.6008772 16.6096491,11.9366636 16.6096491,12.3508772 C16.6096491,12.730573 16.3274952,13.0443682 15.9614197,13.0940306 L15.8596491,13.1008772 L14.8070175,13.1008772 C14.392804,13.1008772 14.0570175,12.7650908 14.0570175,12.3508772 C14.0570175,11.9711814 14.3391714,11.6573862 14.705247,11.6077238 L14.8070175,11.6008772 L15.8596491,11.6008772 Z M19.0175439,11.6008772 C19.4317574,11.6008772 19.7675439,11.9366636 19.7675439,12.3508772 C19.7675439,12.730573 19.48539,13.0443682 19.1193144,13.0940306 L19.0175439,13.1008772 L17.9649123,13.1008772 C17.5506987,13.1008772 17.2149123,12.7650908 17.2149123,12.3508772 C17.2149123,11.9711814 17.4970662,11.6573862 17.8631417,11.6077238 L17.9649123,11.6008772 L19.0175439,11.6008772 Z" id="path-1"></path>
    </defs>
    <g id="ic_celiakeyboard_thumb_mode" stroke="none" stroke-width="1" fill="none" fill-rule="evenodd">
        <mask id="mask-2" fill="white">
            <use xlink:href="#path-1"></use>
        </mask>
        <g id="蒙版" fill-rule="nonzero"></g>
        <g id="编组" mask="url(#mask-2)" fill="#000000" fill-opacity="0.9">
            <g id="color/#000000">
                <rect x="0" y="0" width="24" height="24"></rect>
            </g>
        </g>
    </g>
</svg>