<?xml version="1.0" encoding="UTF-8"?>
<svg width="24px" height="24px" viewBox="0 0 24 24" version="1.1" xmlns="http://www.w3.org/2000/svg" xmlns:xlink="http://www.w3.org/1999/xlink">
    <title>ic_celiakeyboard_default</title>
    <defs>
        <path d="M6.1277704,2.25 L18.169864,2.25169648 C19.7090792,2.26994521 20.4939169,2.43785502 21.3073906,2.87290551 C22.0899438,3.29141954 22.7085805,3.91005624 23.1270945,4.69260945 C23.5893356,5.55692524 23.75,6.38891362 23.75,8.1277704 L23.75,8.1277704 L23.75,15.8722296 C23.75,17.6110864 23.5893356,18.4430748 23.1270945,19.3073906 C22.7085805,20.0899438 22.0899438,20.7085805 21.3073906,21.1270945 C20.4430748,21.5893356 19.6110864,21.75 17.8722296,21.75 L17.8722296,21.75 L6.1277704,21.75 C4.38891362,21.75 3.55692524,21.5893356 2.69260945,21.1270945 C1.91005624,20.7085805 1.29141954,20.0899438 0.872905509,19.3073906 C0.410664368,18.4430748 0.25,17.6110864 0.25,15.8722296 L0.25,15.8722296 L0.251696478,7.83013601 C0.269945209,6.29092077 0.437855023,5.50608313 0.872905509,4.69260945 C1.29141954,3.91005624 1.91005624,3.29141954 2.69260945,2.87290551 C3.55692524,2.41066437 4.38891362,2.25 6.1277704,2.25 L6.1277704,2.25 Z M18.045998,3.7505388 L17.8722296,3.75 L5.87017614,3.75121903 C5.78734857,3.75203845 5.70749484,3.75327766 5.63042492,3.75495686 L5.63042492,3.75495686 L5.19989092,3.77047329 C4.33285874,3.81623142 3.87206136,3.94316827 3.40000774,4.19562531 C2.87885724,4.47433964 2.47433964,4.87885724 2.19562531,5.40000774 C1.94316827,5.87206136 1.81623142,6.33285874 1.77047329,7.19989092 L1.77047329,7.19989092 L1.75495686,7.63042492 C1.75159847,7.78456476 1.75,7.94983984 1.75,8.1277704 L1.75,15.8722296 L1.75495686,16.3695751 L1.77047329,16.8001091 C1.81623142,17.6671413 1.94316827,18.1279386 2.19562531,18.5999923 C2.47433964,19.1211428 2.87885724,19.5256604 3.40000774,19.8043747 C3.87206136,20.0568317 4.33285874,20.1837686 5.19989092,20.2295267 L5.19989092,20.2295267 L5.63042492,20.2450431 L6.1277704,20.25 L17.8722296,20.25 L18.3695751,20.2450431 L18.8001091,20.2295267 C19.6671413,20.1837686 20.1279386,20.0568317 20.5999923,19.8043747 C21.1211428,19.5256604 21.5256604,19.1211428 21.8043747,18.5999923 C22.0568317,18.1279386 22.1837686,17.6671413 22.2295267,16.8001091 L22.2295267,16.8001091 L22.2450431,16.3695751 L22.25,15.8722296 L22.25,8.1277704 L22.2450431,7.63042492 L22.2295267,7.19989092 C22.1837686,6.33285874 22.0568317,5.87206136 21.8043747,5.40000774 C21.5256604,4.87885724 21.1211428,4.47433964 20.5999923,4.19562531 C20.1279386,3.94316827 19.6671413,3.81623142 18.8001091,3.77047329 L18.8001091,3.77047329 L18.3695751,3.75495686 C18.2154352,3.75159847 18.0501602,3.75 17.8722296,3.75 Z M16.5,14.5 C16.9142136,14.5 17.25,14.8357864 17.25,15.25 C17.25,15.6642136 16.9142136,16 16.5,16 L7.5,16 C7.08578644,16 6.75,15.6642136 6.75,15.25 C6.75,14.8357864 7.08578644,14.5 7.5,14.5 L16.5,14.5 Z M8.5,11.25 C8.91421356,11.25 9.25,11.5857864 9.25,12 C9.25,12.4142136 8.91421356,12.75 8.5,12.75 L7.5,12.75 C7.08578644,12.75 6.75,12.4142136 6.75,12 C6.75,11.5857864 7.08578644,11.25 7.5,11.25 L8.5,11.25 Z M12.5,11.25 C12.9142136,11.25 13.25,11.5857864 13.25,12 C13.25,12.4142136 12.9142136,12.75 12.5,12.75 L11.5,12.75 C11.0857864,12.75 10.75,12.4142136 10.75,12 C10.75,11.5857864 11.0857864,11.25 11.5,11.25 L12.5,11.25 Z M16.5,11.25 C16.9142136,11.25 17.25,11.5857864 17.25,12 C17.25,12.4142136 16.9142136,12.75 16.5,12.75 L15.5,12.75 C15.0857864,12.75 14.75,12.4142136 14.75,12 C14.75,11.5857864 15.0857864,11.25 15.5,11.25 L16.5,11.25 Z M8.5,8 C8.91421356,8 9.25,8.33578644 9.25,8.75 C9.25,9.16421356 8.91421356,9.5 8.5,9.5 L7.5,9.5 C7.08578644,9.5 6.75,9.16421356 6.75,8.75 C6.75,8.33578644 7.08578644,8 7.5,8 L8.5,8 Z M12.5,8 C12.9142136,8 13.25,8.33578644 13.25,8.75 C13.25,9.16421356 12.9142136,9.5 12.5,9.5 L11.5,9.5 C11.0857864,9.5 10.75,9.16421356 10.75,8.75 C10.75,8.33578644 11.0857864,8 11.5,8 L12.5,8 Z M16.5,8 C16.9142136,8 17.25,8.33578644 17.25,8.75 C17.25,9.16421356 16.9142136,9.5 16.5,9.5 L15.5,9.5 C15.0857864,9.5 14.75,9.16421356 14.75,8.75 C14.75,8.33578644 15.0857864,8 15.5,8 L16.5,8 Z" id="path-1"></path>
    </defs>
    <g id="ic_celiakeyboard_default" stroke="none" stroke-width="1" fill="none" fill-rule="evenodd">
        <mask id="mask-2" fill="white">
            <use xlink:href="#path-1"></use>
        </mask>
        <g id="蒙版" fill-rule="nonzero"></g>
        <g id="编组" mask="url(#mask-2)" fill="#000000" fill-opacity="0.9">
            <g id="color/#000000">
                <rect x="0" y="0" width="24" height="24"></rect>
            </g>
        </g>
    </g>
</svg>