<?xml version="1.0" encoding="UTF-8"?>
<svg width="24px" height="24px" viewBox="0 0 24 24" version="1.1" xmlns="http://www.w3.org/2000/svg" xmlns:xlink="http://www.w3.org/1999/xlink">
    <title>ic_celiakeyboard_wubi_input</title>
    <defs>
        <path d="M21.3,11.25 C22.6807119,11.25 23.8,12.3692881 23.8,13.75 L23.8,19.55 C23.8,20.9307119 22.6807119,22.05 21.3,22.05 L15.5,22.05 C14.1192881,22.05 13,20.9307119 13,19.55 L13,13.75 C13,12.3692881 14.1192881,11.25 15.5,11.25 L21.3,11.25 Z M17.2734524,2.50035059 C18.5262343,2.50786284 19.1604332,2.63715105 19.8189677,2.98933916 C20.4385579,3.32069965 20.9293004,3.81144206 21.2606608,4.4310323 C21.5755983,5.01991411 21.7122941,5.58933597 21.7430591,6.59903004 L21.7485853,6.86089194 L21.75,7.0958278 L21.7508563,10.2787701 C21.6032521,10.2597877 21.4527691,10.25 21.3,10.25 L20.25,10.25 L20.25,7.0958278 C20.25,5.98982639 20.16903,5.57052939 19.937941,5.13843059 C19.7463803,4.78024305 19.4697569,4.50361974 19.1115694,4.31205895 C18.6794706,4.08096999 18.2601736,4 17.1541722,4 L5.7471545,4.00022498 C4.7144027,4.00504512 4.30743549,4.08797268 3.88843059,4.31205895 C3.53024305,4.50361974 3.25361974,4.78024305 3.06205895,5.13843059 C2.84747634,5.53966519 2.76233305,5.92986151 2.75126454,6.86908336 L2.75,7.0958278 L2.75022498,15.5028455 C2.75504512,16.5355973 2.83797268,16.9425645 3.06205895,17.3615694 C3.25361974,17.7197569 3.53024305,17.9963803 3.88843059,18.187941 C4.28966519,18.4025237 4.67986151,18.4876669 5.61908336,18.4987355 L5.8458278,18.5 L12,18.5 L12,19.55 C12,19.7027691 12.0097877,19.8532521 12.0287701,20.0008563 L5.8458278,20 C4.51337933,20 3.860146,19.8738548 3.1810323,19.5106608 C2.56144206,19.1793004 2.07069965,18.6885579 1.73933916,18.0689677 C1.42440172,17.4800859 1.28770588,16.910664 1.25694091,15.90097 L1.25141472,15.6391081 L1.25,15.4041722 L1.25035059,6.97654762 C1.25786284,5.72376567 1.38715105,5.0895668 1.73933916,4.4310323 C2.07069965,3.81144206 2.56144206,3.32069965 3.1810323,2.98933916 C3.81487176,2.65035811 4.42616653,2.51787291 5.58818539,2.5017148 L5.8458278,2.5 L17.2734524,2.50035059 Z M21.7236,13.6716 L15.5296,13.6716 L15.5296,14.3632 L17.5512,14.3632 L17.27,15.8908 L15.6816,15.8908 L15.6816,16.5672 L17.1484,16.5672 L16.738,18.8548 L15.2028,18.8548 L15.2028,19.5312 L21.9972,19.5312 L21.9972,18.8548 L20.7812,18.8548 L20.8952,15.8908 L18.0224,15.8908 L18.3036,14.3632 L21.7236,14.3632 L21.7236,13.6716 Z M20.1352,16.5672 L20.0364,18.8548 L17.4904,18.8548 L17.9008,16.5672 L20.1352,16.5672 Z M12.0087509,13.5005685 C12.0029497,13.582958 12,13.6661345 12,13.75 L12,15 L6.5,15 C6.08578644,15 5.75,14.6642136 5.75,14.25 C5.75,13.8357864 6.08578644,13.5 6.5,13.5 L12.0087509,13.5005685 Z M8.5,10.75 C8.91421356,10.75 9.25,11.0857864 9.25,11.5 C9.25,11.9142136 8.91421356,12.25 8.5,12.25 L8,12.25 C7.58578644,12.25 7.25,11.9142136 7.25,11.5 C7.25,11.0857864 7.58578644,10.75 8,10.75 L8.5,10.75 Z M11.75,10.75 C12.1642136,10.75 12.5,11.0857864 12.5,11.5 C12.5,11.9142136 12.1642136,12.25 11.75,12.25 L11.25,12.25 C10.8357864,12.25 10.5,11.9142136 10.5,11.5 C10.5,11.0857864 10.8357864,10.75 11.25,10.75 L11.75,10.75 Z M7,8 C7.41421356,8 7.75,8.33578644 7.75,8.75 C7.75,9.16421356 7.41421356,9.5 7,9.5 L6.5,9.5 C6.08578644,9.5 5.75,9.16421356 5.75,8.75 C5.75,8.33578644 6.08578644,8 6.5,8 L7,8 Z M10.25,8 C10.6642136,8 11,8.33578644 11,8.75 C11,9.16421356 10.6642136,9.5 10.25,9.5 L9.75,9.5 C9.33578644,9.5 9,9.16421356 9,8.75 C9,8.33578644 9.33578644,8 9.75,8 L10.25,8 Z M13.5,8 C13.9142136,8 14.25,8.33578644 14.25,8.75 C14.25,9.16421356 13.9142136,9.5 13.5,9.5 L13,9.5 C12.5857864,9.5 12.25,9.16421356 12.25,8.75 C12.25,8.33578644 12.5857864,8 13,8 L13.5,8 Z M16.75,8 C17.1642136,8 17.5,8.33578644 17.5,8.75 C17.5,9.16421356 17.1642136,9.5 16.75,9.5 L16.25,9.5 C15.8357864,9.5 15.5,9.16421356 15.5,8.75 C15.5,8.33578644 15.8357864,8 16.25,8 L16.75,8 Z" id="path-1"></path>
    </defs>
    <g id="ic_celiakeyboard_wubi_input" stroke="none" stroke-width="1" fill="none" fill-rule="evenodd">
        <mask id="mask-2" fill="white">
            <use xlink:href="#path-1"></use>
        </mask>
        <g id="蒙版" fill-rule="nonzero"></g>
        <g id="编组" mask="url(#mask-2)" fill-opacity="0.9">
            <g transform="translate(-0.000000, -0.000000)">
                <rect id="color/#000000" fill="#000000" x="0" y="0" width="24" height="24"></rect>
            </g>
        </g>
    </g>
</svg>