<?xml version="1.0" encoding="UTF-8"?>
<svg width="24px" height="24px" viewBox="0 0 24 24" version="1.1" xmlns="http://www.w3.org/2000/svg" xmlns:xlink="http://www.w3.org/1999/xlink">
    <title>ic_encryption_cmcc</title>
    <defs>
        <path d="M10.6911795,1.30107415 C11.5177131,0.900330583 12.4822869,0.900330583 13.3088205,1.30107415 L13.3088205,1.30107415 L19.7316154,4.41515652 C20.5073719,4.79128086 21,5.57760856 21,6.43973826 L21,6.43973826 L21,11.25 C21,16.5158971 17.6459225,21.1101108 12.7508862,22.7973636 C12.7379871,22.8018097 12.7161694,22.8089491 12.685433,22.8187818 C12.2393172,22.9614959 11.759784,22.9614277 11.3137088,22.8185866 L11.3137088,22.8185866 L11.2767569,22.806645 L11.2767569,22.806645 L11.2519921,22.7983767 C6.35549222,21.1121681 3,16.5172142 3,11.25 L3,11.25 L3,6.43973826 C3,5.57760856 3.49262814,4.79128086 4.26838461,4.41515652 L4.26838461,4.41515652 Z M12.6544103,2.65079531 C12.2411435,2.45042353 11.7588565,2.45042353 11.3455897,2.65079531 L11.3455897,2.65079531 L4.92279487,5.76487768 C4.66420938,5.89025246 4.5,6.15236169 4.5,6.43973826 L4.5,6.43973826 L4.5,11.25 C4.5,15.8744307 7.44826353,19.9075659 11.7523646,21.3842288 C11.7540267,21.384799 11.7557242,21.38538 11.7574571,21.385972 C11.9129108,21.4390691 12.081498,21.4396589 12.2373194,21.3876508 L12.2373194,21.3876508 L12.2455137,21.384915 C16.5098224,19.9199393 19.4399024,15.954552 19.4990866,11.3909195 L19.4990866,11.3909195 L19.5,11.25 L19.5,6.43973826 C19.5,6.15236169 19.3357906,5.89025246 19.0772051,5.76487768 L19.0772051,5.76487768 Z M8.39168084,7.01781063 C8.76387994,6.9464785 9.14492906,7.09336067 9.38176037,7.38762123 L9.38176037,7.38762123 L10.1483459,8.33838553 C10.1960861,8.39793236 10.2446989,8.45747918 10.2958046,8.51454489 C10.6082055,8.86637726 10.5924976,9.39915704 10.2599059,9.7321534 L10.2599059,9.7321534 L9.71606646,10.2451245 C9.50002662,10.4606367 9.46146123,10.7958 9.62295436,11.054341 C10.2323587,12.0346306 11.8773391,13.6789914 12.9413349,14.3314013 C13.2006217,14.4899227 13.5353516,14.4505004 13.7503008,14.2361264 L13.7503008,14.2361264 L14.2464001,13.7540452 C14.5739728,13.4300375 15.0954701,13.4073056 15.4502511,13.7015696 C15.5082124,13.7499514 15.5662984,13.7982091 15.6266281,13.8436136 L15.6266281,13.8436136 L16.7027147,14.6545669 C17.0990951,15.0513502 17.0990951,15.6922418 16.7027147,16.0890251 L16.7027147,16.0890251 L16.3910946,16.3991648 C15.9068369,16.8811219 15.2122979,17.0953664 14.5409435,16.9601455 C11.6432501,16.3764626 7.73104614,12.3813668 7.05158958,9.45637717 C6.89413869,8.77098461 7.10247833,8.0532062 7.60290794,7.55695751 L7.60290794,7.55695751 L7.86591534,7.29519959 C8.00926505,7.15236784 8.19244684,7.05572284 8.39168084,7.01781063 Z" id="path-1"></path>
    </defs>
    <g id="ic_encryption_cmcc" stroke="none" stroke-width="1" fill="none" fill-rule="evenodd">
        <mask id="mask-2" fill="white">
            <use xlink:href="#path-1"></use>
        </mask>
        <use id="形状结合" fill="#000000" fill-rule="nonzero" xlink:href="#path-1"></use>
    </g>
</svg>