<?xml version="1.0" encoding="UTF-8"?>
<svg width="281px" height="320px" viewBox="0 0 281 320" version="1.1" xmlns="http://www.w3.org/2000/svg" xmlns:xlink="http://www.w3.org/1999/xlink">
    <title>ic_normal_white_grid_wma</title>
    <defs>
        <path d="M107,8.70870844 L107,75.9729528 L107,75.9729528 C107,84.7187046 100.567598,91.633881 91.9980585,92.6766594 C83.4285186,93.7194377 76.8996001,88.165752 76.8996001,81.2436471 C76.8996001,72.6562445 83.1563413,68.8966462 88.5101368,66.7013773 C93.8639324,64.5061083 97.7372792,60.3170123 97.7372792,56.2154084 L97.7372792,20.4803882 L51.448484,29.1354034 L51.448484,82.3824061 C51.448484,91.0841563 43.0208454,100.215983 35.3683909,101.741201 C27.7159363,103.26642 19,97.9230075 19,89.0637727 C19,80.2045378 26.7881245,75.2564436 30.9934831,73.6366543 C33.4140783,72.7043071 42.1920393,69.8500217 42.1920393,65.6178202 L42.1920393,16.7696047 C42.1920393,12.4810365 45.2834688,8.81699259 49.5108518,8.09515467 L96.7188125,0.0342583976 C101.509579,-0.783778879 106.056413,2.43675445 106.87445,7.22752092 C106.958,7.71682545 107,8.21232195 107,8.70870844 Z" id="path-1"></path>
    </defs>
    <g id="页面-1" stroke="none" stroke-width="1" fill="none" fill-rule="evenodd">
        <g id="音乐-wma" transform="translate(-0.142857, 0.000000)">
            <path d="M16.5714286,0 L196.75526,0 L196.75526,0 L196.611534,65.674268 C196.589433,75.773165 204.75829,83.9778551 214.857187,83.9999562 C214.870526,83.9999854 214.883865,84 214.897204,84 L280.571429,84 L280.571429,84 L280.571429,304 C280.571429,312.836556 273.407985,320 264.571429,320 L16.5714286,320 C7.73487257,320 0.571428571,312.836556 0.571428571,304 L0.571428571,16 C0.571428571,7.163444 7.73487257,-1.53107837e-16 16.5714286,0 Z" id="矩形备份-71" fill="#FB5BA5"></path>
            <path d="M196.571429,0 L280.571429,84 L214.857143,84 C204.758222,84 196.571429,75.8132069 196.571429,65.7142857 L196.571429,0 L196.571429,0 Z" id="矩形备份-72" fill="#FFA6B2"></path>
            <g id="编组-238" transform="translate(69.571429, 116.000000)">
                <mask id="mask-2" fill="white">
                    <use xlink:href="#path-1"></use>
                </mask>
                <use id="Shape-Copy备份-5" fill="#FFFFFF" fill-rule="nonzero" xlink:href="#path-1"></use>
                <polyline id="路径-10备份-3" stroke="#FFFFFF" stroke-width="8.2" stroke-linecap="round" stroke-linejoin="round" points="98.4 162.819224 98.4 123.928711 93.9954432 123.928711 77.7654437 162.819224 62.155716 123.928711 57.6054097 123.928711 57.4 162.819224"></polyline>
                <polyline id="路径-16" stroke="#FFFFFF" stroke-width="8.2" stroke-linecap="round" stroke-linejoin="round" points="112.066667 163.83673 127.549732 123 142.270729 163.83673"></polyline>
                <polyline id="路径-25" stroke="#FFFFFF" stroke-width="8.2" stroke-linecap="round" stroke-linejoin="round" points="8.24229573e-13 124.27758 9.24369098 163.033721 22.1735372 124.27758 34.8475263 163.033721 44.372547 124.27758"></polyline>
                <line x1="118.94307" y1="151.421979" x2="135.866476" y2="151.421979" id="路径-17" stroke="#FFFFFF" stroke-width="8.2" stroke-linecap="round"></line>
            </g>
        </g>
    </g>
</svg>