<?xml version="1.0" encoding="UTF-8"?>
<svg width="281px" height="320px" viewBox="0 0 281 320" version="1.1" xmlns="http://www.w3.org/2000/svg" xmlns:xlink="http://www.w3.org/1999/xlink">
    <title>ic_normal_white_grid_download</title>
    <g id="页面-1" stroke="none" stroke-width="1" fill="none" fill-rule="evenodd">
        <path d="M16.4285714,0 L196.612403,0 L196.612403,0 L196.468677,65.674268 C196.446576,75.773165 204.615433,83.9778551 214.71433,83.9999562 C214.727669,83.9999854 214.741008,84 214.754347,84 L280.428571,84 L280.428571,84 L280.428571,304 C280.428571,312.836556 273.265127,320 264.428571,320 L16.4285714,320 C7.59201543,320 0.428571429,312.836556 0.428571429,304 L0.428571429,16 C0.428571429,7.163444 7.59201543,-1.53107837e-16 16.4285714,0 Z" id="矩形备份-94" fill="#67CC67"></path>
        <path d="M196.428571,0 L280.428571,84 L214.714286,84 C204.615365,84 196.428571,75.8132069 196.428571,65.7142857 L196.428571,0 L196.428571,0 Z" id="矩形备份-95" fill="#96ED96"></path>
        <g id="编组-248" transform="translate(86.428571, 142.000000)" fill="#FFFFFF">
            <path d="M18.1446807,48.8539278 L39.4804828,48.8539278 L39.4804828,48.8539278 L39.4804828,2.44897959 C39.4804828,1.09644551 40.5769283,-2.95907885e-13 41.9294624,-2.98427949e-13 L65.102798,-2.98427949e-13 C66.4553321,-3.01836191e-13 67.5517776,1.09644551 67.5517776,2.44897959 L67.5517776,48.8539278 L67.5517776,48.8539278 L89.6104214,48.8539278 C90.9629555,48.8539278 92.059401,49.9503734 92.059401,51.3029074 C92.059401,51.9511385 91.8023963,52.5729272 91.344719,53.031986 L55.6118487,88.8727125 C54.6569049,89.8305386 53.1062986,89.8328752 52.1484724,88.8779315 C52.1467301,88.8761944 52.1449904,88.8744548 52.1432534,88.8727125 L16.410383,53.031986 C15.4554393,52.0741599 15.457776,50.5235535 16.4156021,49.5686098 C16.8746609,49.1109325 17.4964496,48.8539278 18.1446807,48.8539278 Z" id="路径-6"></path>
            <rect id="矩形" x="-1.32160949e-12" y="100.408163" width="107.755102" height="19.5918367" rx="9.79591837"></rect>
        </g>
    </g>
</svg>