<?xml version="1.0" encoding="UTF-8"?>
<svg width="281px" height="320px" viewBox="0 0 281 320" version="1.1" xmlns="http://www.w3.org/2000/svg" xmlns:xlink="http://www.w3.org/1999/xlink">
    <title>ic_normal_white_grid_ape</title>
    <defs>
        <path d="M90,8.70870844 L90,75.9729528 L90,75.9729528 C90,84.7187046 83.5675985,91.633881 74.9980585,92.6766594 C66.4285186,93.7194377 59.8996001,88.165752 59.8996001,81.2436471 C59.8996001,72.6562445 66.1563413,68.8966462 71.5101368,66.7013773 C76.8639324,64.5061083 80.7372792,60.3170123 80.7372792,56.2154084 L80.7372792,20.4803882 L34.448484,29.1354034 L34.448484,82.3824061 C34.448484,91.0841563 26.0208454,100.215983 18.3683909,101.741201 C10.7159363,103.26642 2,97.9230075 2,89.0637727 C2,80.2045378 9.78812445,75.2564436 13.9934831,73.6366543 C16.4140783,72.7043071 25.1920393,69.8500217 25.1920393,65.6178202 L25.1920393,16.7696047 C25.1920393,12.4810365 28.2834688,8.81699259 32.5108518,8.09515467 L79.7188125,0.0342583976 C84.509579,-0.783778879 89.0564128,2.43675445 89.87445,7.22752092 C89.9580002,7.71682545 90,8.21232195 90,8.70870844 Z" id="path-1"></path>
    </defs>
    <g id="页面-1" stroke="none" stroke-width="1" fill="none" fill-rule="evenodd">
        <g id="编组-89">
            <path d="M16.4285714,0 L196.612403,0 L196.612403,0 L196.468677,65.674268 C196.446576,75.773165 204.615433,83.9778551 214.71433,83.9999562 C214.727669,83.9999854 214.741008,84 214.754347,84 L280.428571,84 L280.428571,84 L280.428571,304 C280.428571,312.836556 273.265127,320 264.428571,320 L16.4285714,320 C7.59201543,320 0.428571429,312.836556 0.428571429,304 L0.428571429,16 C0.428571429,7.163444 7.59201543,-1.53107837e-16 16.4285714,0 Z" id="矩形备份-56" fill="#FB5BA5"></path>
            <path d="M196.428571,0 L280.428571,84 L214.714286,84 C204.615365,84 196.428571,75.8132069 196.428571,65.7142857 L196.428571,0 L196.428571,0 Z" id="矩形备份-58" fill="#FFA6B2"></path>
            <g id="编组-242" transform="translate(84.428571, 116.000000)">
                <mask id="mask-2" fill="white">
                    <use xlink:href="#path-1"></use>
                </mask>
                <use id="Shape-Copy备份" fill="#FFFFFF" fill-rule="nonzero" xlink:href="#path-1"></use>
                <path d="M46.1880038,146.0625 L58.3168989,146.0625 C64.9149566,146.0625 70.2637391,140.92669 70.2637391,134.591347 C70.2637391,128.256004 64.9149566,123 58.3168989,123 L46.1880038,123 L46.1880038,162.492946" id="路径" stroke="#FFFFFF" stroke-width="7.6875" stroke-linecap="round" stroke-linejoin="round"></path>
                <polyline id="路径-16" stroke="#FFFFFF" stroke-width="7.6875" stroke-linecap="round" stroke-linejoin="round" points="-3.37507799e-13 163.348183 14.5153741 125.063748 28.3163089 163.348183"></polyline>
                <line x1="6.44662817" y1="151.709354" x2="22.3123215" y2="151.709354" id="路径-17" stroke="#FFFFFF" stroke-width="7.6875" stroke-linecap="round"></line>
                <polyline id="路径-18" stroke="#FFFFFF" stroke-width="7.6875" stroke-linecap="round" stroke-linejoin="round" points="107.353006 162.492946 86.5979541 162.492946 86.5979541 124.249106 107.353006 124.249106"></polyline>
                <line x1="87.764139" y1="142.080866" x2="104.274039" y2="142.080866" id="路径-19" stroke="#FFFFFF" stroke-width="7.6875" stroke-linecap="round" stroke-linejoin="round"></line>
            </g>
        </g>
    </g>
</svg>