<?xml version="1.0" encoding="UTF-8"?>
<svg width="281px" height="320px" viewBox="0 0 281 320" version="1.1" xmlns="http://www.w3.org/2000/svg" xmlns:xlink="http://www.w3.org/1999/xlink">
    <title>ic_normal_white_grid_m4a</title>
    <defs>
        <path d="M96,8.70870844 L96,75.9729528 L96,75.9729528 C96,84.7187046 89.5675985,91.633881 80.9980585,92.6766594 C72.4285186,93.7194377 65.8996001,88.165752 65.8996001,81.2436471 C65.8996001,72.6562445 72.1563413,68.8966462 77.5101368,66.7013773 C82.8639324,64.5061083 86.7372792,60.3170123 86.7372792,56.2154084 L86.7372792,20.4803882 L40.448484,29.1354034 L40.448484,82.3824061 C40.448484,91.0841563 32.0208454,100.215983 24.3683909,101.741201 C16.7159363,103.26642 8,97.9230075 8,89.0637727 C8,80.2045378 15.7881245,75.2564436 19.9934831,73.6366543 C22.4140783,72.7043071 31.1920393,69.8500217 31.1920393,65.6178202 L31.1920393,16.7696047 C31.1920393,12.4810365 34.2834688,8.81699259 38.5108518,8.09515467 L85.7188125,0.0342583976 C90.509579,-0.783778879 95.0564128,2.43675445 95.87445,7.22752092 C95.9580002,7.71682545 96,8.21232195 96,8.70870844 Z" id="path-1"></path>
    </defs>
    <g id="页面-1" stroke="none" stroke-width="1" fill="none" fill-rule="evenodd">
        <path d="M16.4285714,0 L196.612403,0 L196.612403,0 L196.468677,65.674268 C196.446576,75.773165 204.615433,83.9778551 214.71433,83.9999562 C214.727669,83.9999854 214.741008,84 214.754347,84 L280.428571,84 L280.428571,84 L280.428571,304 C280.428571,312.836556 273.265127,320 264.428571,320 L16.4285714,320 C7.59201543,320 0.428571429,312.836556 0.428571429,304 L0.428571429,16 C0.428571429,7.163444 7.59201543,-1.53107837e-16 16.4285714,0 Z" id="矩形备份-54" fill="#FB5BA5"></path>
        <path d="M196.428571,0 L280.428571,84 L214.714286,84 C204.615365,84 196.428571,75.8132069 196.428571,65.7142857 L196.428571,0 L196.428571,0 Z" id="矩形备份-55" fill="#FFA6B2"></path>
        <g id="编组-243" transform="translate(79.428571, 116.000000)">
            <mask id="mask-2" fill="white">
                <use xlink:href="#path-1"></use>
            </mask>
            <use id="Shape-Copy" fill="#FFFFFF" fill-rule="nonzero" xlink:href="#path-1"></use>
            <g id="编组" transform="translate(0.000000, 123.000000)" stroke="#FFFFFF" stroke-linecap="round" stroke-width="7.92">
                <polyline id="路径-16" stroke-linejoin="round" points="90.76 40.42761 105.714376 0.985304636 119.932705 40.42761"></polyline>
                <polyline id="路径-10备份-3" stroke-linejoin="round" points="39.6 39.4448481 39.6 1.88230312 35.3458427 1.88230312 19.6700383 39.4448481 4.59332567 1.88230312 0.198395717 1.88230312 0 39.4448481"></polyline>
                <polyline id="路径-23" stroke-linejoin="round" points="78.9029638 29.7048815 53.1989326 29.7048815 72.0574518 -2.13162821e-13 72.0574518 39.4448481"></polyline>
                <line x1="97.4015994" y1="28.4367775" x2="113.747133" y2="28.4367775" id="路径-17"></line>
            </g>
        </g>
    </g>
</svg>