<?xml version="1.0" encoding="UTF-8"?>
<svg width="281px" height="320px" viewBox="0 0 281 320" version="1.1" xmlns="http://www.w3.org/2000/svg" xmlns:xlink="http://www.w3.org/1999/xlink">
    <title>ic_normal_white_grid_pptx</title>
    <g id="页面-1" stroke="none" stroke-width="1" fill="none" fill-rule="evenodd">
        <g id="编组-236" transform="translate(0.428571, 0.000000)">
            <path d="M16,0 L196.183832,0 L196.183832,0 L196.040105,65.674268 C196.018004,75.773165 204.186861,83.9778551 214.285758,83.9999562 C214.299097,83.9999854 214.312437,84 214.325776,84 L280,84 L280,84 L280,304 C280,312.836556 272.836556,320 264,320 L16,320 C7.163444,320 1.082166e-15,312.836556 0,304 L0,16 C-2.85852284e-15,7.163444 7.163444,-1.53107837e-16 16,0 Z" id="矩形备份-23" fill="#F57C43"></path>
            <path d="M196,0 L280,84 L214.285714,84 C204.186793,84 196,75.8132069 196,65.7142857 L196,0 L196,0 Z" id="矩形备份-24" fill="#FEB694"></path>
        </g>
        <g id="编组-2" stroke-linecap="round" stroke-linejoin="round" transform="translate(104.428571, 146.000000)" stroke="#FFFFFF" stroke-width="17">
            <path d="M41.2772739,2.08527815e-13 L4.51502783,2.08527815e-13 C2.02144681,2.080977e-13 1.69009115e-13,2.02144681 1.68426312e-13,4.51502783 L1.68426312e-13,108.862496 L1.68426312e-13,108.862496" id="路径-7"></path>
            <path d="M6.82048407,61.2722054 L41.7135255,61.2722054 C58.5451973,61.2722054 72.1899633,47.6274394 72.1899633,30.7957676 C72.1899633,13.9640957 58.5451973,-2.72690219e-13 41.7135255,-2.72690219e-13" id="路径"></path>
        </g>
    </g>
</svg>