<?xml version="1.0" encoding="UTF-8"?>
<svg width="281px" height="320px" viewBox="0 0 281 320" version="1.1" xmlns="http://www.w3.org/2000/svg" xmlns:xlink="http://www.w3.org/1999/xlink">
    <title>ic_normal_white_grid_amr</title>
    <defs>
        <path d="M99,8.70870844 L99,75.9729528 L99,75.9729528 C99,84.7187046 92.5675985,91.633881 83.9980585,92.6766594 C75.4285186,93.7194377 68.8996001,88.165752 68.8996001,81.2436471 C68.8996001,72.6562445 75.1563413,68.8966462 80.5101368,66.7013773 C85.8639324,64.5061083 89.7372792,60.3170123 89.7372792,56.2154084 L89.7372792,20.4803882 L43.448484,29.1354034 L43.448484,82.3824061 C43.448484,91.0841563 35.0208454,100.215983 27.3683909,101.741201 C19.7159363,103.26642 11,97.9230075 11,89.0637727 C11,80.2045378 18.7881245,75.2564436 22.9934831,73.6366543 C25.4140783,72.7043071 34.1920393,69.8500217 34.1920393,65.6178202 L34.1920393,16.7696047 C34.1920393,12.4810365 37.2834688,8.81699259 41.5108518,8.09515467 L88.7188125,0.0342583976 C93.509579,-0.783778879 98.0564128,2.43675445 98.87445,7.22752092 C98.9580002,7.71682545 99,8.21232195 99,8.70870844 Z" id="path-1"></path>
    </defs>
    <g id="页面-1" stroke="none" stroke-width="1" fill="none" fill-rule="evenodd">
        <g id="音屏-amr" transform="translate(-0.142857, 0.000000)">
            <path d="M16.5714286,0 L196.75526,0 L196.75526,0 L196.611534,65.674268 C196.589433,75.773165 204.75829,83.9778551 214.857187,83.9999562 C214.870526,83.9999854 214.883865,84 214.897204,84 L280.571429,84 L280.571429,84 L280.571429,304 C280.571429,312.836556 273.407985,320 264.571429,320 L16.5714286,320 C7.73487257,320 0.571428571,312.836556 0.571428571,304 L0.571428571,16 C0.571428571,7.163444 7.73487257,-1.53107837e-16 16.5714286,0 Z" id="矩形备份-98" fill="#FB5BA5"></path>
            <path d="M196.571429,0 L280.571429,84 L214.857143,84 C204.758222,84 196.571429,75.8132069 196.571429,65.7142857 L196.571429,0 L196.571429,0 Z" id="矩形备份-99" fill="#FFA6B2"></path>
            <g id="编组-237" transform="translate(77.571429, 116.000000)">
                <mask id="mask-2" fill="white">
                    <use xlink:href="#path-1"></use>
                </mask>
                <use id="Shape-Copy备份-6" fill="#FFFFFF" fill-rule="nonzero" xlink:href="#path-1"></use>
                <path d="M99.4702088,143.867736 L111.990359,143.867736 C118.801257,143.867736 123.211961,141.058622 123.211961,134.518914 C123.211961,127.979205 118.801257,123 111.990359,123 L99.4702088,123 L99.4702088,163.473358" id="路径" stroke="#FFFFFF" stroke-width="7.93548387" stroke-linecap="round" stroke-linejoin="round"></path>
                <polyline id="路径-10备份-3" stroke="#FFFFFF" stroke-width="7.93548387" stroke-linecap="round" stroke-linejoin="round" points="84.6451613 162.388563 84.6451613 124.752582 80.382687 124.752582 64.6762358 162.388563 49.5700477 124.752582 45.1665255 124.752582 44.9677419 162.388563"></polyline>
                <polyline id="路径-16" stroke="#FFFFFF" stroke-width="7.93548387" stroke-linecap="round" stroke-linejoin="round" points="-2.94875235e-13 163.373246 14.9836119 123.853829 29.2297382 163.373246"></polyline>
                <line x1="6.65458391" y1="151.358971" x2="23.0320738" y2="151.358971" id="路径-17" stroke="#FFFFFF" stroke-width="7.93548387" stroke-linecap="round"></line>
                <line x1="124.159748" y1="163.473358" x2="103.960761" y2="145.696195" id="路径-26" stroke="#FFFFFF" stroke-width="7.93548387" stroke-linecap="round"></line>
            </g>
        </g>
    </g>
</svg>