<?xml version="1.0" encoding="UTF-8"?>
<svg width="281px" height="320px" viewBox="0 0 281 320" version="1.1" xmlns="http://www.w3.org/2000/svg" xmlns:xlink="http://www.w3.org/1999/xlink">
    <title>ic_normal_white_grid_image</title>
    <g id="页面-1" stroke="none" stroke-width="1" fill="none" fill-rule="evenodd">
        <path d="M16.4285714,0 L196.612403,0 L196.612403,0 L196.468677,65.674268 C196.446576,75.773165 204.615433,83.9778551 214.71433,83.9999562 C214.727669,83.9999854 214.741008,84 214.754347,84 L280.428571,84 L280.428571,84 L280.428571,304 C280.428571,312.836556 273.265127,320 264.428571,320 L16.4285714,320 C7.59201543,320 0.428571429,312.836556 0.428571429,304 L0.428571429,16 C0.428571429,7.163444 7.59201543,-1.53107837e-16 16.4285714,0 Z" id="矩形" fill="#67CC67"></path>
        <g id="编组" stroke-linecap="round" stroke-linejoin="round" transform="translate(57.428571, 146.000000)" fill="#FFFFFF">
            <path d="M6.8150889,101.584771 L40.5699781,57.4279631 C42.4303838,54.9942542 45.9114514,54.5295 48.3451604,56.3899057 C48.7523598,56.7011821 49.1144492,57.0673966 49.421093,57.4780959 L67.9481671,82.2920889 L67.9481671,82.2920889 L103.465849,32.4403817 C105.243372,29.9454952 108.706845,29.3639577 111.201732,31.1414812 C111.726231,31.51517 112.181647,31.9773459 112.547566,32.5072953 L160.394033,101.801756 C162.134601,104.322563 161.502092,107.777091 158.981285,109.517659 C158.054805,110.157375 156.955585,110.5 155.829707,110.5 L11.2217087,110.5 C8.1583693,110.5 5.67504205,108.016673 5.67504205,104.953333 C5.67504205,103.735787 6.07565736,102.552066 6.8150889,101.584771 Z" id="路径-8"></path>
            <circle id="椭圆形" cx="31.4" cy="14" r="14"></circle>
        </g>
        <path d="M196.428571,0 L280.428571,84 L214.714286,84 C204.615365,84 196.428571,75.8132069 196.428571,65.7142857 L196.428571,0 L196.428571,0 Z" id="矩形" fill="#96ED96"></path>
    </g>
</svg>