<?xml version="1.0" encoding="UTF-8"?>
<svg width="18px" height="18px" viewBox="0 0 18 18" version="1.1" xmlns="http://www.w3.org/2000/svg" xmlns:xlink="http://www.w3.org/1999/xlink">
    <!-- Generator: Sketch 63.1 (92452) - https://sketch.com -->
    <title>Public/ic_public_input_code</title>
    <desc>Created with Sketch.</desc>
    <defs>
        <path d="M6.03385763,9.5625 C6.86965644,9.5625 7.17273729,9.64952401 7.47829285,9.81293691 C7.7838484,9.97634981 8.02365019,10.2161516 8.18706309,10.5217072 C8.35047599,10.8272627 8.4375,11.1303436 8.4375,11.9661424 L8.4375,13.7213576 C8.4375,14.5571564 8.35047599,14.8602373 8.18706309,15.1657928 C8.02365019,15.4713484 7.7838484,15.7111502 7.47829285,15.8745631 C7.17273729,16.037976 6.86965644,16.125 6.03385763,16.125 L4.27864237,16.125 C3.44284356,16.125 3.13976271,16.037976 2.83420715,15.8745631 C2.5286516,15.7111502 2.28884981,15.4713484 2.12543691,15.1657928 C1.97564175,14.8857003 1.89003448,14.6076871 1.87680685,13.9195188 L1.875,11.9661424 C1.875,11.1303436 1.96202401,10.8272627 2.12543691,10.5217072 C2.28884981,10.2161516 2.5286516,9.97634981 2.83420715,9.81293691 C3.13976271,9.64952401 3.44284356,9.5625 4.27864237,9.5625 L6.03385763,9.5625 Z M11.1442715,13.6875 C11.3114313,13.6875 11.3720475,13.7049048 11.4331586,13.7375874 C11.4942697,13.77027 11.54223,13.8182303 11.5749126,13.8793414 C11.6075952,13.9404525 11.625,14.0010687 11.625,14.1682285 L11.625,15.2692715 C11.625,15.4364313 11.6075952,15.4970475 11.5749126,15.5581586 C11.54223,15.6192697 11.4942697,15.66723 11.4331586,15.6999126 C11.3720475,15.7325952 11.3114313,15.75 11.1442715,15.75 L10.0432285,15.75 C9.87606871,15.75 9.81545254,15.7325952 9.75434143,15.6999126 C9.69323032,15.66723 9.64526996,15.6192697 9.61258738,15.5581586 C9.5799048,15.4970475 9.5625,15.4364313 9.5625,15.2692715 L9.5625,14.1682285 C9.5625,14.0010687 9.5799048,13.9404525 9.61258738,13.8793414 C9.64526996,13.8182303 9.69323032,13.77027 9.75434143,13.7375874 C9.81545254,13.7049048 9.87606871,13.6875 10.0432285,13.6875 L11.1442715,13.6875 Z M15.4567715,13.6875 C15.6239313,13.6875 15.6845475,13.7049048 15.7456586,13.7375874 C15.8067697,13.77027 15.85473,13.8182303 15.8874126,13.8793414 C15.9200952,13.9404525 15.9375,14.0010687 15.9375,14.1682285 L15.9375,15.2692715 C15.9375,15.4364313 15.9200952,15.4970475 15.8874126,15.5581586 C15.85473,15.6192697 15.8067697,15.66723 15.7456586,15.6999126 C15.6845475,15.7325952 15.6239313,15.75 15.4567715,15.75 L14.3557285,15.75 C14.1885687,15.75 14.1279525,15.7325952 14.0668414,15.6999126 C14.0057303,15.66723 13.95777,15.6192697 13.9250874,15.5581586 C13.8924048,15.4970475 13.875,15.4364313 13.875,15.2692715 L13.875,14.1682285 C13.875,14.0010687 13.8924048,13.9404525 13.9250874,13.8793414 C13.95777,13.8182303 14.0057303,13.77027 14.0668414,13.7375874 C14.1279525,13.7049048 14.1885687,13.6875 14.3557285,13.6875 L15.4567715,13.6875 Z M4.27864237,11.0625 C4.01213365,11.0625 3.82855518,11.0723901 3.70737619,11.0887003 L3.64199249,11.099229 C3.59637636,11.1080379 3.58630113,11.1117532 3.54160544,11.1356567 C3.4974526,11.1592699 3.47176991,11.1849526 3.44815671,11.2291054 C3.42425319,11.2738011 3.4205379,11.2838764 3.41172901,11.3294925 C3.39298964,11.4265329 3.3799763,11.5818667 3.37615905,11.8160245 L3.375,13.7213576 C3.375,14.0411681 3.38924177,14.241559 3.41172901,14.3580075 C3.4205379,14.4036236 3.42425319,14.4136989 3.44815671,14.4583946 C3.47176991,14.5025474 3.4974526,14.5282301 3.54160544,14.5518433 C3.58630113,14.5757468 3.59637636,14.5794621 3.64199249,14.588271 L3.78773576,14.6077877 C3.87591177,14.6159497 3.98802981,14.6215506 4.12852452,14.6238409 L4.27864237,14.625 L6.03385763,14.625 L6.31517554,14.6204748 C6.4779351,14.6145893 6.59287518,14.6032625 6.67050751,14.588271 C6.71612364,14.5794621 6.72619887,14.5757468 6.77089456,14.5518433 C6.8150474,14.5282301 6.84073009,14.5025474 6.86434329,14.4583946 C6.88027897,14.4285974 6.8872421,14.4141872 6.8927236,14.3943752 L6.90077099,14.3580075 C6.91951036,14.2609671 6.9325237,14.1056333 6.93634095,13.8714755 L6.9375,11.9661424 C6.9375,11.6996337 6.92760988,11.5160552 6.91129972,11.3948762 L6.90077099,11.3294925 C6.8919621,11.2838764 6.88824681,11.2738011 6.86434329,11.2291054 C6.84073009,11.1849526 6.8150474,11.1592699 6.77089456,11.1356567 C6.74109743,11.119721 6.72668718,11.1127579 6.70687525,11.1072764 L6.67050751,11.099229 C6.57346709,11.0804896 6.41813333,11.0674763 6.18397548,11.0636591 L4.27864237,11.0625 Z M13.3942715,11.625 C13.5614313,11.625 13.6220475,11.6424048 13.6831586,11.6750874 C13.7442697,11.70777 13.79223,11.7557303 13.8249126,11.8168414 C13.8575952,11.8779525 13.875,11.9385687 13.875,12.1057285 L13.875,13.3942715 C13.875,13.5614313 13.8575952,13.6220475 13.8249126,13.6831586 C13.79223,13.7442697 13.7442697,13.79223 13.6831586,13.8249126 C13.6220475,13.8575952 13.5614313,13.875 13.3942715,13.875 L12.1057285,13.875 C11.9385687,13.875 11.8779525,13.8575952 11.8168414,13.8249126 C11.7557303,13.79223 11.70777,13.7442697 11.6750874,13.6831586 C11.6424048,13.6220475 11.625,13.5614313 11.625,13.3942715 L11.625,12.1057285 C11.625,11.9385687 11.6424048,11.8779525 11.6750874,11.8168414 C11.70777,11.7557303 11.7557303,11.70777 11.8168414,11.6750874 C11.8779525,11.6424048 11.9385687,11.625 12.1057285,11.625 L13.3942715,11.625 Z M5.75963576,12 C5.84321564,12 5.87352373,12.0087024 5.90407928,12.0250437 C5.93463484,12.041385 5.95861502,12.0653652 5.97495631,12.0959207 C5.9912976,12.1264763 6,12.1567844 6,12.2403642 L6,13.4471358 C6,13.5307156 5.9912976,13.5610237 5.97495631,13.5915793 C5.95861502,13.6221348 5.93463484,13.646115 5.90407928,13.6624563 C5.87352373,13.6787976 5.84321564,13.6875 5.75963576,13.6875 L4.55286424,13.6875 C4.46928436,13.6875 4.43897627,13.6787976 4.40842072,13.6624563 C4.37786516,13.646115 4.35388498,13.6221348 4.33754369,13.5915793 C4.3212024,13.5610237 4.3125,13.5307156 4.3125,13.4471358 L4.3125,12.2403642 C4.3125,12.1567844 4.3212024,12.1264763 4.33754369,12.0959207 C4.35388498,12.0653652 4.37786516,12.041385 4.40842072,12.0250437 C4.43897627,12.0087024 4.46928436,12 4.55286424,12 L5.75963576,12 Z M11.1442715,9.75 C11.3114313,9.75 11.3720475,9.7674048 11.4331586,9.80008738 C11.4942697,9.83276996 11.54223,9.88073032 11.5749126,9.94184143 C11.6075952,10.0029525 11.625,10.0635687 11.625,10.2307285 L11.625,11.3317715 C11.625,11.4989313 11.6075952,11.5595475 11.5749126,11.6206586 C11.54223,11.6817697 11.4942697,11.72973 11.4331586,11.7624126 C11.3720475,11.7950952 11.3114313,11.8125 11.1442715,11.8125 L10.0432285,11.8125 C9.87606871,11.8125 9.81545254,11.7950952 9.75434143,11.7624126 C9.69323032,11.72973 9.64526996,11.6817697 9.61258738,11.6206586 C9.5799048,11.5595475 9.5625,11.4989313 9.5625,11.3317715 L9.5625,10.2307285 C9.5625,10.0635687 9.5799048,10.0029525 9.61258738,9.94184143 C9.64526996,9.88073032 9.69323032,9.83276996 9.75434143,9.80008738 C9.81545254,9.7674048 9.87606871,9.75 10.0432285,9.75 L11.1442715,9.75 Z M15.4567715,9.75 C15.6239313,9.75 15.6845475,9.7674048 15.7456586,9.80008738 C15.8067697,9.83276996 15.85473,9.88073032 15.8874126,9.94184143 C15.9200952,10.0029525 15.9375,10.0635687 15.9375,10.2307285 L15.9375,11.3317715 C15.9375,11.4989313 15.9200952,11.5595475 15.8874126,11.6206586 C15.85473,11.6817697 15.8067697,11.72973 15.7456586,11.7624126 C15.6845475,11.7950952 15.6239313,11.8125 15.4567715,11.8125 L14.3557285,11.8125 C14.1885687,11.8125 14.1279525,11.7950952 14.0668414,11.7624126 C14.0057303,11.72973 13.95777,11.6817697 13.9250874,11.6206586 C13.8924048,11.5595475 13.875,11.4989313 13.875,11.3317715 L13.875,10.2307285 C13.875,10.0635687 13.8924048,10.0029525 13.9250874,9.94184143 C13.95777,9.88073032 14.0057303,9.83276996 14.0668414,9.80008738 C14.1279525,9.7674048 14.1885687,9.75 14.3557285,9.75 L15.4567715,9.75 Z M6.03385763,1.875 C6.86965644,1.875 7.17273729,1.96202401 7.47829285,2.12543691 C7.7838484,2.28884981 8.02365019,2.5286516 8.18706309,2.83420715 C8.35047599,3.13976271 8.4375,3.44284356 8.4375,4.27864237 L8.4375,6.03385763 C8.4375,6.86965644 8.35047599,7.17273729 8.18706309,7.47829285 C8.02365019,7.7838484 7.7838484,8.02365019 7.47829285,8.18706309 C7.17273729,8.35047599 6.86965644,8.4375 6.03385763,8.4375 L4.27864237,8.4375 C3.44284356,8.4375 3.13976271,8.35047599 2.83420715,8.18706309 C2.5286516,8.02365019 2.28884981,7.7838484 2.12543691,7.47829285 C1.97564175,7.19820025 1.89003448,6.9201871 1.87680685,6.23201876 L1.875,4.27864237 C1.875,3.44284356 1.96202401,3.13976271 2.12543691,2.83420715 C2.28884981,2.5286516 2.5286516,2.28884981 2.83420715,2.12543691 C3.11429975,1.97564175 3.3923129,1.89003448 4.08048124,1.87680685 L6.03385763,1.875 Z M13.7213576,1.875 C14.5571564,1.875 14.8602373,1.96202401 15.1657928,2.12543691 C15.4713484,2.28884981 15.7111502,2.5286516 15.8745631,2.83420715 C16.037976,3.13976271 16.125,3.44284356 16.125,4.27864237 L16.125,6.03385763 C16.125,6.86965644 16.037976,7.17273729 15.8745631,7.47829285 C15.7111502,7.7838484 15.4713484,8.02365019 15.1657928,8.18706309 C14.8602373,8.35047599 14.5571564,8.4375 13.7213576,8.4375 L11.9661424,8.4375 C11.1303436,8.4375 10.8272627,8.35047599 10.5217072,8.18706309 C10.2161516,8.02365019 9.97634981,7.7838484 9.81293691,7.47829285 C9.64952401,7.17273729 9.5625,6.86965644 9.5625,6.03385763 L9.5625,4.27864237 C9.5625,3.44284356 9.64952401,3.13976271 9.81293691,2.83420715 C9.97634981,2.5286516 10.2161516,2.28884981 10.5217072,2.12543691 C10.8017997,1.97564175 11.0798129,1.89003448 11.7679812,1.87680685 L13.7213576,1.875 Z M4.27864237,3.375 C3.95883191,3.375 3.75844099,3.38924177 3.64199249,3.41172901 C3.59637636,3.4205379 3.58630113,3.42425319 3.54160544,3.44815671 C3.4974526,3.47176991 3.47176991,3.4974526 3.44815671,3.54160544 C3.42425319,3.58630113 3.4205379,3.59637636 3.41172901,3.64199249 L3.39221235,3.78773576 C3.38405034,3.87591177 3.3784494,3.98802981 3.37615905,4.12852452 L3.375,6.03385763 C3.375,6.35366809 3.38924177,6.55405901 3.41172901,6.67050751 C3.4205379,6.71612364 3.42425319,6.72619887 3.44815671,6.77089456 C3.47176991,6.8150474 3.4974526,6.84073009 3.54160544,6.86434329 C3.57140257,6.88027897 3.58581282,6.8872421 3.60562475,6.8927236 L3.64199249,6.90077099 C3.73903291,6.91951036 3.89436667,6.9325237 4.12852452,6.93634095 L6.03385763,6.9375 C6.30036635,6.9375 6.48394482,6.92760988 6.60512381,6.91129972 L6.67050751,6.90077099 C6.71612364,6.8919621 6.72619887,6.88824681 6.77089456,6.86434329 C6.8150474,6.84073009 6.84073009,6.8150474 6.86434329,6.77089456 C6.88027897,6.74109743 6.8872421,6.72668718 6.8927236,6.70687525 L6.90077099,6.67050751 C6.91951036,6.57346709 6.9325237,6.41813333 6.93634095,6.18397548 L6.9375,4.27864237 C6.9375,4.01213365 6.92760988,3.82855518 6.91129972,3.70737619 L6.90077099,3.64199249 C6.8919621,3.59637636 6.88824681,3.58630113 6.86434329,3.54160544 C6.84073009,3.4974526 6.8150474,3.47176991 6.77089456,3.44815671 C6.72619887,3.42425319 6.71612364,3.4205379 6.67050751,3.41172901 C6.57346709,3.39298964 6.41813333,3.3799763 6.18397548,3.37615905 L4.27864237,3.375 Z M11.9661424,3.375 C11.6463319,3.375 11.445941,3.38924177 11.3294925,3.41172901 C11.2838764,3.4205379 11.2738011,3.42425319 11.2291054,3.44815671 C11.1849526,3.47176991 11.1592699,3.4974526 11.1356567,3.54160544 C11.119721,3.57140257 11.1127579,3.58581282 11.1072764,3.60562475 L11.099229,3.64199249 C11.0804896,3.73903291 11.0674763,3.89436667 11.0636591,4.12852452 L11.0625,6.03385763 C11.0625,6.30036635 11.0723901,6.48394482 11.0887003,6.60512381 L11.099229,6.67050751 C11.1080379,6.71612364 11.1117532,6.72619887 11.1356567,6.77089456 C11.1592699,6.8150474 11.1849526,6.84073009 11.2291054,6.86434329 C11.2589026,6.88027897 11.2733128,6.8872421 11.2931248,6.8927236 L11.3294925,6.90077099 C11.4265329,6.91951036 11.5818667,6.9325237 11.8160245,6.93634095 L13.7213576,6.9375 C13.9878663,6.9375 14.1714448,6.92760988 14.2926238,6.91129972 L14.3580075,6.90077099 C14.4036236,6.8919621 14.4136989,6.88824681 14.4583946,6.86434329 C14.5025474,6.84073009 14.5282301,6.8150474 14.5518433,6.77089456 C14.5757468,6.72619887 14.5794621,6.71612364 14.588271,6.67050751 C14.6070104,6.57346709 14.6200237,6.41813333 14.6238409,6.18397548 L14.625,6.03385763 L14.625,4.27864237 L14.6204748,3.99732446 C14.6145893,3.8345649 14.6032625,3.71962482 14.588271,3.64199249 C14.5794621,3.59637636 14.5757468,3.58630113 14.5518433,3.54160544 C14.5282301,3.4974526 14.5025474,3.47176991 14.4583946,3.44815671 C14.4136989,3.42425319 14.4036236,3.4205379 14.3580075,3.41172901 L14.2122642,3.39221235 C14.1240882,3.38405034 14.0119702,3.3784494 13.8714755,3.37615905 L11.9661424,3.375 Z M5.75963576,4.3125 C5.84321564,4.3125 5.87352373,4.3212024 5.90407928,4.33754369 C5.93463484,4.35388498 5.95861502,4.37786516 5.97495631,4.40842072 C5.9912976,4.43897627 6,4.46928436 6,4.55286424 L6,5.75963576 C6,5.84321564 5.9912976,5.87352373 5.97495631,5.90407928 C5.95861502,5.93463484 5.93463484,5.95861502 5.90407928,5.97495631 C5.87352373,5.9912976 5.84321564,6 5.75963576,6 L4.55286424,6 C4.46928436,6 4.43897627,5.9912976 4.40842072,5.97495631 C4.37786516,5.95861502 4.35388498,5.93463484 4.33754369,5.90407928 C4.3212024,5.87352373 4.3125,5.84321564 4.3125,5.75963576 L4.3125,4.55286424 C4.3125,4.46928436 4.3212024,4.43897627 4.33754369,4.40842072 C4.35388498,4.37786516 4.37786516,4.35388498 4.40842072,4.33754369 C4.43897627,4.3212024 4.46928436,4.3125 4.55286424,4.3125 L5.75963576,4.3125 Z M13.4471358,4.3125 C13.5307156,4.3125 13.5610237,4.3212024 13.5915793,4.33754369 C13.6221348,4.35388498 13.646115,4.37786516 13.6624563,4.40842072 C13.6787976,4.43897627 13.6875,4.46928436 13.6875,4.55286424 L13.6875,5.75963576 C13.6875,5.84321564 13.6787976,5.87352373 13.6624563,5.90407928 C13.646115,5.93463484 13.6221348,5.95861502 13.5915793,5.97495631 C13.5610237,5.9912976 13.5307156,6 13.4471358,6 L12.2403642,6 C12.1567844,6 12.1264763,5.9912976 12.0959207,5.97495631 C12.0653652,5.95861502 12.041385,5.93463484 12.0250437,5.90407928 C12.0087024,5.87352373 12,5.84321564 12,5.75963576 L12,4.55286424 C12,4.46928436 12.0087024,4.43897627 12.0250437,4.40842072 C12.041385,4.37786516 12.0653652,4.35388498 12.0959207,4.33754369 C12.1264763,4.3212024 12.1567844,4.3125 12.2403642,4.3125 L13.4471358,4.3125 Z" id="path-1"></path>
    </defs>
    <g id="Public/ic_public_input_code" stroke="none" stroke-width="1" fill="none" fill-rule="evenodd">
        <mask id="mask-2" fill="white">
            <use xlink:href="#path-1"></use>
        </mask>
        <g id="形状结合" fill-rule="nonzero"></g>
        <g id="Symbol/color-light/colorPrimary" mask="url(#mask-2)" fill="#000000" fill-opacity="0.9">
            <rect id="color/#000000" x="0" y="0" width="18" height="18"></rect>
        </g>
    </g>
</svg>